<svg width="33" height="34" fill="none" xmlns="http://www.w3.org/2000/svg"><path d="M4.394 33.142h24.212c2.939 0 4.394-1.455 4.394-4.338v-8.285c0-1.273-.168-1.903-.798-2.659l-4.828-5.99c-1.637-2.015-2.645-3.19-5.122-3.19h-11.49c-2.491 0-3.485 1.175-5.122 3.19L.798 17.86C.182 18.616 0 19.246 0 20.519v8.285c0 2.883 1.47 4.338 4.394 4.338zM2.87 18.672l4.954-6.256c.686-.868 1.75-1.763 2.771-1.763h11.812c1.021 0 2.085.895 2.77 1.763l4.97 6.256c.559.713.363.993-.407.993h-8.915c-.727 0-1.063.56-1.063 1.134v.056c0 1.623-1.274 3.33-3.261 3.33-1.973 0-3.247-1.707-3.247-3.33v-.056c0-.574-.35-1.134-1.077-1.134H3.289c-.812 0-.966-.322-.42-.993zm1.553 12.217c-1.4 0-2.169-.755-2.169-2.21v-6.956h8.873c.336 2.617 2.533 4.548 5.374 4.548 2.841 0 5.038-1.945 5.374-4.549h8.873v6.956c0 1.456-.784 2.211-2.17 2.211H4.423z" fill="#00F5A0"/><path d="M16.5.044c-1.777 0-3.26 1.456-3.26 3.22V18.42c0 1.763 1.483 3.233 3.26 3.233 1.777 0 3.26-1.47 3.26-3.233V3.263C19.76 1.5 18.278.044 16.5.044z" fill="#181818"/><path d="M16.5 19.497c.294 0 .532-.084.812-.363l4.73-4.563c.21-.21.322-.448.322-.742 0-.573-.434-.98-1.008-.98-.28 0-.574.113-.77.337l-2.113 2.253-.951.994.098-2.1V3.263c0-.587-.518-1.077-1.12-1.077-.602 0-1.106.49-1.106 1.077v11.07l.084 2.1-.951-.994-2.113-2.253a1.082 1.082 0 00-.784-.336c-.574 0-.994.406-.994.98 0 .293.112.531.322.741l4.73 4.563c.28.28.532.363.812.363z" fill="#00F5A0"/></svg>