<svg width="34" height="31" fill="none" xmlns="http://www.w3.org/2000/svg"><path d="M29.003 20.38c.532.359 1.193.23 1.58-.316 1.84-2.529 2.917-6.005 2.917-9.554 0-3.549-1.063-7.054-2.916-9.554-.388-.56-1.05-.675-1.58-.316-.518.36-.619 1.034-.188 1.623 1.566 2.213 2.457 5.187 2.457 8.247 0 3.06-.92 6.005-2.456 8.246-.417.59-.331 1.265.186 1.624zm-5.316-3.75c.474.33 1.164.23 1.537-.33 1.107-1.451 1.768-3.592 1.768-5.79s-.661-4.324-1.768-5.804c-.373-.546-1.063-.661-1.537-.316-.589.402-.675 1.12-.23 1.71.848 1.149 1.308 2.743 1.308 4.41 0 1.666-.474 3.247-1.308 4.41-.43.604-.359 1.293.23 1.71zM4.034 30.753H22.08c2.385 0 3.52-.719 3.52-2.3 0-3.763-4.741-9.208-12.543-9.208C5.256 19.245.5 24.69.5 28.454c0 1.58 1.135 2.299 3.534 2.299zm-.69-2.17c-.373 0-.531-.1-.531-.402 0-2.37 3.65-6.767 10.244-6.767 6.594 0 10.228 4.396 10.228 6.767 0 .302-.143.402-.517.402H3.345zm9.713-11.134c3.419 0 6.206-3.032 6.206-6.738 0-3.678-2.759-6.566-6.207-6.566-3.404 0-6.206 2.946-6.206 6.595.014 3.692 2.802 6.709 6.207 6.709zm0-2.17c-2.098 0-3.894-1.996-3.894-4.54 0-2.5 1.767-4.424 3.893-4.424 2.155 0 3.894 1.882 3.894 4.396 0 2.543-1.767 4.569-3.893 4.569z" fill="#00F5A0"/></svg>