<svg width="30" height="29" fill="none" xmlns="http://www.w3.org/2000/svg"><path d="M18.756 22.123c3.2-1.336.188-6.457-2.39-9.059-2.696-2.671-7.512-5.753-9.06-2.378L.359 26.084c-.774 1.723.832 3.375 2.566 2.648l15.832-6.609zM1.834 26.717l5.848-12.973c.586 1.488 1.77 3.176 3.293 4.711 1.5 1.488 3.14 2.649 4.605 3.246l-13.277 5.52c-.399.164-.656-.082-.469-.504zm7.125-15.68c.774-.785 3.446.363 6.246 3.188 2.836 2.8 3.961 5.484 3.188 6.246-.785.797-3.457-.352-6.27-3.176-2.812-2.8-3.949-5.484-3.164-6.258z" fill="#fff" fill-opacity=".85"/><path d="M10.682 2.658c.703 0 1.289-.574 1.289-1.289a1.29 1.29 0 00-1.29-1.277c-.726 0-1.288.574-1.288 1.277 0 .715.562 1.29 1.289 1.29zm1.547 2.192c-.082-.434-.363-.797-.82-.797-.434.011-.88.375-.786.844.528 2.753.528 5.59 0 8.39-.105.457.352.809.774.82.445 0 .738-.351.82-.785.55-2.86.55-5.648.012-8.472zm5.695-.164c1.23 0 2.203-.985 2.203-2.204A2.178 2.178 0 0017.924.28c-1.23 0-2.203.961-2.203 2.203 0 1.22.973 2.204 2.203 2.204zm-2.226 3.691c.574 0 1.03-.469 1.03-1.043 0-.562-.456-1.031-1.03-1.031a1.05 1.05 0 00-1.043 1.031c0 .574.48 1.043 1.043 1.043zm11.789-5.05c.562 0 1.02-.458 1.02-1.032 0-.574-.458-1.043-1.02-1.043-.575 0-1.032.469-1.032 1.043s.457 1.031 1.032 1.031zm-3.387.76L21.908 6.28a.836.836 0 000 1.149.828.828 0 001.16 0l2.192-2.18a.85.85 0 000-1.16.85.85 0 00-1.16 0zm-4.348 4.36l-5.976 5.965a.85.85 0 000 1.16.85.85 0 001.16 0L20.9 9.596c.293-.305.293-.82 0-1.149-.328-.293-.844-.293-1.149 0zm8.801 5.39c.715 0 1.29-.573 1.29-1.3 0-.703-.575-1.277-1.29-1.277-.727 0-1.29.574-1.29 1.277 0 .727.563 1.3 1.29 1.3zm-5.04.481c1.044 0 1.876-.808 1.876-1.851a1.863 1.863 0 00-1.875-1.864c-1.031 0-1.84.833-1.84 1.864 0 1.043.809 1.851 1.84 1.851zm4.595 5.52c.715 0 1.289-.563 1.289-1.29 0-.714-.574-1.288-1.29-1.288-.714 0-1.288.574-1.288 1.289 0 .726.574 1.289 1.289 1.289zm-3.575-2.719a22.46 22.46 0 00-8.484 0c-.422.094-.785.387-.773.82 0 .434.351.891.82.797a22.44 22.44 0 018.39-.011c.446.093.82-.34.833-.786.011-.457-.364-.738-.785-.82z" fill="#fff" fill-opacity=".85"/></svg>