<svg width="45" height="23" fill="none" xmlns="http://www.w3.org/2000/svg"><path d="M9.006 10.656c2.191 0 4.078-1.969 4.078-4.511 0-2.52-1.899-4.383-4.078-4.383-2.168 0-4.078 1.91-4.078 4.406 0 2.52 1.898 4.488 4.078 4.488zM2.479 21.238h13.054c1.489 0 2.063-.586 2.063-1.64 0-3.246-3.305-7.149-8.59-7.149s-8.59 3.903-8.59 7.149c0 1.054.574 1.64 2.063 1.64zm33.527-10.582c2.191 0 4.078-1.969 4.078-4.511 0-2.52-1.899-4.383-4.078-4.383-2.18 0-4.09 1.91-4.09 4.406 0 2.52 1.91 4.488 4.09 4.488zm-6.527 10.582h13.043c1.488 0 2.062-.586 2.062-1.64 0-3.246-3.293-7.149-8.578-7.149-5.297 0-8.59 3.903-8.59 7.149 0 1.054.574 1.64 2.063 1.64z" fill="#fff" fill-opacity=".85"/><path d="M14.643 22.832h15.726c2.274 0 3.598-1.395 3.598-3.152 0-3.938-4.512-8.79-11.461-8.79-6.938 0-11.461 4.852-11.461 8.79 0 1.758 1.336 3.152 3.598 3.152z" fill="#242424"/><path d="M22.518 10.387c2.507 0 4.687-2.25 4.687-5.18 0-2.894-2.18-5.039-4.687-5.039-2.508 0-4.688 2.191-4.688 5.062 0 2.907 2.168 5.157 4.688 5.157zm-7.875 10.851h15.726c1.254 0 2.004-.586 2.004-1.558 0-3.024-3.785-7.196-9.867-7.196-6.07 0-9.856 4.172-9.856 7.196 0 .972.75 1.558 1.993 1.558z" fill="#fff" fill-opacity=".85"/></svg>