<svg width="26" height="23" fill="none" xmlns="http://www.w3.org/2000/svg"><path d="M1.383 14.12l7.535-4.36 5.426 4.652 9.644-5.742-.738-1.195-8.813 5.25-5.402-4.63-7.652 4.419v1.605zm7.383-2.778a2.09 2.09 0 002.085-2.086 2.08 2.08 0 00-2.085-2.074A2.08 2.08 0 006.68 9.256a2.09 2.09 0 002.086 2.086zm5.53 4.3a2.08 2.08 0 002.075-2.085 2.07 2.07 0 00-2.074-2.075 2.08 2.08 0 00-2.086 2.075 2.09 2.09 0 002.086 2.086zm8.837-5.331a2.09 2.09 0 002.086-2.086 2.09 2.09 0 00-2.086-2.086 2.09 2.09 0 00-2.086 2.086 2.09 2.09 0 002.086 2.086z" fill="#fff" fill-opacity=".85"/><path d="M.152 21.408c0 .563.375.926.938.926h23.308c.516 0 .95-.41.95-.938a.95.95 0 00-.95-.937H2.368c-.247 0-.329-.082-.329-.328V1.604a.948.948 0 00-.937-.938.95.95 0 00-.95.938v19.804z" fill="#fff" fill-opacity=".85"/></svg>