<svg width="28" height="27" fill="none" xmlns="http://www.w3.org/2000/svg"><path d="M14.433 25.56c.187 0 .469-.07.773-.223 6.668-3.492 8.813-5.238 8.813-9.445V7.056c0-1.207-.527-1.594-1.5-2.004-1.371-.562-5.754-2.156-7.125-2.625a2.957 2.957 0 00-.961-.164c-.328 0-.656.07-.973.164-1.37.446-5.742 2.075-7.113 2.625-.984.399-1.5.797-1.5 2.004v8.836c0 4.207 2.262 5.754 8.812 9.445.293.165.586.223.774.223z" fill="#fff" fill-opacity=".85"/><path d="M23.34 26.04c.89.88 2.331.891 3.21 0a2.274 2.274 0 000-3.21L4.671.962A2.296 2.296 0 001.461.94c-.891.867-.903 2.355-.012 3.234l21.89 21.868z" fill="#242424"/><path d="M24.312 25.08a.906.906 0 001.277 0 .916.916 0 000-1.278L3.7 1.923a.942.942 0 00-1.29 0 .928.928 0 000 1.278L24.312 25.08z" fill="#fff" fill-opacity=".85"/></svg>