<?xml version="1.0" encoding="utf-8"?><svg viewBox="0 0 45 34" xmlns="http://www.w3.org/2000/svg" xmlns:xlink="http://www.w3.org/1999/xlink"><style>:root>svg{display:none}:root>svg:target{display:block}</style><svg viewBox="0 0 9 16" id="arrow" xmlns="http://www.w3.org/2000/svg"><path d="M9 8a.752.752 0 00-.267-.57L1.445.725A.886.886 0 00.837.5C.368.5 0 .837 0 1.286c0 .216.092.415.24.562L6.938 8l-6.7 6.152a.78.78 0 00-.239.562c0 .449.368.786.837.786.24 0 .442-.078.608-.233L8.733 8.57A.766.766 0 009 8z"/></svg><svg viewBox="0 0 30 29" id="bonus" xmlns="http://www.w3.org/2000/svg"><path d="M18.756 22.123c3.2-1.336.188-6.457-2.39-9.059-2.696-2.671-7.512-5.753-9.06-2.378L.359 26.084c-.774 1.723.832 3.375 2.566 2.648l15.832-6.609zM1.834 26.717l5.848-12.973c.586 1.488 1.77 3.176 3.293 4.711 1.5 1.488 3.14 2.649 4.605 3.246l-13.277 5.52c-.399.164-.656-.082-.469-.504zm7.125-15.68c.774-.785 3.446.363 6.246 3.188 2.836 2.8 3.961 5.484 3.188 6.246-.785.797-3.457-.352-6.27-3.176-2.812-2.8-3.949-5.484-3.164-6.258z" fill-opacity=".85"/><path d="M10.682 2.658c.703 0 1.289-.574 1.289-1.289a1.29 1.29 0 00-1.29-1.277c-.726 0-1.288.574-1.288 1.277 0 .715.562 1.29 1.289 1.29zm1.547 2.192c-.082-.434-.363-.797-.82-.797-.434.011-.88.375-.786.844.528 2.753.528 5.59 0 8.39-.105.457.352.809.774.82.445 0 .738-.351.82-.785.55-2.86.55-5.648.012-8.472zm5.695-.164c1.23 0 2.203-.985 2.203-2.204A2.178 2.178 0 0017.924.28c-1.23 0-2.203.961-2.203 2.203 0 1.22.973 2.204 2.203 2.204zm-2.226 3.691c.574 0 1.03-.469 1.03-1.043 0-.562-.456-1.031-1.03-1.031a1.05 1.05 0 00-1.043 1.031c0 .574.48 1.043 1.043 1.043zm11.789-5.05c.562 0 1.02-.458 1.02-1.032 0-.574-.458-1.043-1.02-1.043-.575 0-1.032.469-1.032 1.043s.457 1.031 1.032 1.031zm-3.387.76L21.908 6.28a.836.836 0 000 1.149.828.828 0 001.16 0l2.192-2.18a.85.85 0 000-1.16.85.85 0 00-1.16 0zm-4.348 4.36l-5.976 5.965a.85.85 0 000 1.16.85.85 0 001.16 0L20.9 9.596c.293-.305.293-.82 0-1.149-.328-.293-.844-.293-1.149 0zm8.801 5.39c.715 0 1.29-.573 1.29-1.3 0-.703-.575-1.277-1.29-1.277-.727 0-1.29.574-1.29 1.277 0 .727.563 1.3 1.29 1.3zm-5.04.481c1.044 0 1.876-.808 1.876-1.851a1.863 1.863 0 00-1.875-1.864c-1.031 0-1.84.833-1.84 1.864 0 1.043.809 1.851 1.84 1.851zm4.595 5.52c.715 0 1.289-.563 1.289-1.29 0-.714-.574-1.288-1.29-1.288-.714 0-1.288.574-1.288 1.289 0 .726.574 1.289 1.289 1.289zm-3.575-2.719a22.46 22.46 0 00-8.484 0c-.422.094-.785.387-.773.82 0 .434.351.891.82.797 2.8-.527 5.625-.539 8.39-.011.446.093.82-.34.833-.786.011-.457-.364-.738-.785-.82z" fill-opacity=".85"/></svg><svg viewBox="0 0 23 23" id="check" xmlns="http://www.w3.org/2000/svg"><path d="M8.703 23c.574 0 1.028-.254 1.349-.748L22.666 2.39c.24-.387.334-.68.334-.987 0-.735-.48-1.215-1.215-1.215-.534 0-.827.173-1.148.68L8.65 19.97l-6.22-8.143c-.334-.467-.668-.654-1.149-.654-.76 0-1.281.52-1.281 1.255 0 .307.133.654.387.974l6.928 8.824c.4.52.814.774 1.388.774z"/></svg><svg viewBox="0 0 45 23" id="community" xmlns="http://www.w3.org/2000/svg"><path d="M9.006 10.656c2.191 0 4.078-1.969 4.078-4.511 0-2.52-1.899-4.383-4.078-4.383-2.168 0-4.078 1.91-4.078 4.406 0 2.52 1.898 4.488 4.078 4.488zM2.479 21.238h13.054c1.489 0 2.063-.586 2.063-1.64 0-3.246-3.305-7.149-8.59-7.149s-8.59 3.903-8.59 7.149c0 1.054.574 1.64 2.063 1.64zM36.006 10.656c2.191 0 4.078-1.969 4.078-4.511 0-2.52-1.899-4.383-4.078-4.383-2.18 0-4.09 1.91-4.09 4.406 0 2.52 1.91 4.488 4.09 4.488zm-6.527 10.582h13.043c1.488 0 2.062-.586 2.062-1.64 0-3.246-3.293-7.149-8.578-7.149-5.297 0-8.59 3.903-8.59 7.149 0 1.054.574 1.64 2.063 1.64z" fill-opacity=".85"/><path d="M14.643 22.832h15.726c2.274 0 3.598-1.395 3.598-3.152 0-3.938-4.512-8.79-11.461-8.79-6.938 0-11.461 4.852-11.461 8.79 0 1.758 1.336 3.152 3.598 3.152z"/><path d="M22.518 10.387c2.507 0 4.687-2.25 4.687-5.18 0-2.894-2.18-5.039-4.687-5.039-2.508 0-4.688 2.191-4.688 5.062 0 2.907 2.168 5.157 4.688 5.157zm-7.875 10.851h15.726c1.254 0 2.004-.586 2.004-1.558 0-3.024-3.785-7.196-9.867-7.196-6.07 0-9.856 4.172-9.856 7.196 0 .972.75 1.558 1.993 1.558z" fill-opacity=".85"/></svg><svg viewBox="0 0 33 34" id="deposit" xmlns="http://www.w3.org/2000/svg"><path d="M4.394 33.142h24.212c2.939 0 4.394-1.455 4.394-4.338v-8.285c0-1.273-.168-1.903-.798-2.659l-4.828-5.99c-1.637-2.015-2.645-3.19-5.122-3.19h-11.49c-2.491 0-3.485 1.175-5.122 3.19L.798 17.86C.182 18.616 0 19.246 0 20.519v8.285c0 2.883 1.47 4.338 4.394 4.338zM2.87 18.672l4.954-6.256c.686-.868 1.75-1.763 2.771-1.763h11.812c1.021 0 2.085.895 2.77 1.763l4.97 6.256c.559.713.363.993-.407.993h-8.915c-.727 0-1.063.56-1.063 1.134v.056c0 1.623-1.274 3.33-3.261 3.33-1.973 0-3.247-1.707-3.247-3.33v-.056c0-.574-.35-1.134-1.077-1.134H3.289c-.812 0-.966-.322-.42-.993zm1.553 12.217c-1.4 0-2.169-.755-2.169-2.21v-6.956h8.873c.336 2.617 2.533 4.548 5.374 4.548 2.841 0 5.038-1.945 5.374-4.549h8.873v6.956c0 1.456-.784 2.211-2.17 2.211H4.423z"/><path d="M16.5.044c-1.777 0-3.26 1.456-3.26 3.22V18.42c0 1.763 1.483 3.233 3.26 3.233 1.777 0 3.26-1.47 3.26-3.233V3.263C19.76 1.5 18.278.044 16.5.044z"/><path d="M16.5 19.497c.294 0 .532-.084.812-.363l4.73-4.563c.21-.21.322-.448.322-.742 0-.573-.434-.98-1.008-.98-.28 0-.574.113-.77.337l-2.113 2.253-.951.994.098-2.1V3.263c0-.587-.518-1.077-1.12-1.077-.602 0-1.106.49-1.106 1.077v11.07l.084 2.1-.951-.994-2.113-2.253a1.082 1.082 0 00-.784-.336c-.574 0-.994.406-.994.98 0 .293.112.531.322.741l4.73 4.563c.28.28.532.363.812.363z"/></svg><svg viewBox="0 0 17 27" id="lightning" xmlns="http://www.w3.org/2000/svg"><path d="M.494 14.951c0 .457.352.797.844.797h6.621l-3.492 9.493c-.457 1.207.797 1.851 1.582.867L16.7 12.795c.2-.246.305-.48.305-.75 0-.445-.352-.797-.844-.797H9.541l3.492-9.492C13.49.55 12.236-.095 11.451.901L.8 14.2c-.2.258-.305.493-.305.75z" fill-opacity=".85"/></svg><svg viewBox="0 0 26 23" id="rakeback" xmlns="http://www.w3.org/2000/svg"><path d="M1.383 14.12l7.535-4.36 5.426 4.652 9.644-5.742-.738-1.195-8.813 5.25-5.402-4.63-7.652 4.419v1.605zm7.383-2.778a2.09 2.09 0 002.085-2.086 2.08 2.08 0 00-2.085-2.074A2.08 2.08 0 006.68 9.256a2.09 2.09 0 002.086 2.086zm5.53 4.3a2.08 2.08 0 002.075-2.085 2.07 2.07 0 00-2.074-2.075 2.08 2.08 0 00-2.086 2.075 2.09 2.09 0 002.086 2.086zm8.837-5.331a2.09 2.09 0 002.086-2.086 2.09 2.09 0 00-2.086-2.086 2.09 2.09 0 00-2.086 2.086 2.09 2.09 0 002.086 2.086z" fill-opacity=".85"/><path d="M.152 21.408c0 .563.375.926.938.926h23.308c.516 0 .95-.41.95-.938a.95.95 0 00-.95-.937H2.368c-.247 0-.329-.082-.329-.328V1.604a.948.948 0 00-.937-.938.95.95 0 00-.95.938v19.804z" fill-opacity=".85"/></svg><svg viewBox="0 0 34 31" id="support" xmlns="http://www.w3.org/2000/svg"><path d="M29.003 20.38c.532.359 1.193.23 1.58-.316 1.84-2.529 2.917-6.005 2.917-9.554 0-3.549-1.063-7.054-2.916-9.554-.388-.56-1.05-.675-1.58-.316-.518.36-.619 1.034-.188 1.623 1.566 2.213 2.457 5.187 2.457 8.247 0 3.06-.92 6.005-2.456 8.246-.417.59-.331 1.265.186 1.624zM23.687 16.63c.474.33 1.164.23 1.537-.33 1.107-1.451 1.768-3.592 1.768-5.79s-.661-4.324-1.768-5.804c-.373-.546-1.063-.661-1.537-.316-.589.402-.675 1.12-.23 1.71.848 1.149 1.308 2.743 1.308 4.41 0 1.666-.474 3.247-1.308 4.41-.43.604-.359 1.293.23 1.71zM4.034 30.753H22.08c2.385 0 3.52-.719 3.52-2.3 0-3.763-4.741-9.208-12.543-9.208C5.256 19.245.5 24.69.5 28.454c0 1.58 1.135 2.299 3.534 2.299zm-.69-2.17c-.373 0-.531-.1-.531-.402 0-2.37 3.65-6.767 10.244-6.767 6.594 0 10.228 4.396 10.228 6.767 0 .302-.143.402-.517.402H3.345zm9.713-11.134c3.419 0 6.206-3.032 6.206-6.738 0-3.678-2.759-6.566-6.207-6.566-3.404 0-6.206 2.946-6.206 6.595.014 3.692 2.802 6.709 6.207 6.709zm0-2.17c-2.098 0-3.894-1.996-3.894-4.54 0-2.5 1.767-4.424 3.893-4.424 2.155 0 3.894 1.882 3.894 4.396 0 2.543-1.767 4.569-3.893 4.569z"/></svg><svg viewBox="0 0 28 27" id="verify" xmlns="http://www.w3.org/2000/svg"><path d="M14.433 25.56c.187 0 .469-.07.773-.223 6.668-3.492 8.813-5.238 8.813-9.445V7.056c0-1.207-.527-1.594-1.5-2.004-1.371-.562-5.754-2.156-7.125-2.625a2.957 2.957 0 00-.961-.164c-.328 0-.656.07-.973.164-1.37.446-5.742 2.075-7.113 2.625-.984.399-1.5.797-1.5 2.004v8.836c0 4.207 2.262 5.754 8.812 9.445.293.165.586.223.774.223z" fill-opacity=".85"/><path d="M23.34 26.04c.89.88 2.331.891 3.21 0a2.274 2.274 0 000-3.21L4.671.962A2.296 2.296 0 001.461.94c-.891.867-.903 2.355-.012 3.234l21.89 21.868z"/><path d="M24.312 25.08a.906.906 0 001.277 0 .916.916 0 000-1.278L3.7 1.923a.942.942 0 00-1.29 0 .928.928 0 000 1.278L24.312 25.08z" fill-opacity=".85"/></svg></svg>