<svg width="9" height="16" viewBox="0 0 9 16" fill="none" xmlns="http://www.w3.org/2000/svg">
<path d="M9 8C9 7.78397 8.90804 7.58524 8.73316 7.42971L1.44479 0.724654C1.27915 0.577765 1.07669 0.5 0.837429 0.5C0.368099 0.5 0 0.836981 0 1.28629C0 1.50231 0.0920252 1.70104 0.239265 1.84792L6.93867 8L0.239265 14.152C0.0920252 14.2989 0 14.4891 0 14.7136C0 15.163 0.368099 15.5 0.837429 15.5C1.07669 15.5 1.27915 15.4222 1.44479 15.2666L8.73316 8.57025C8.90804 8.40612 9 8.21596 9 8Z" fill="white"/>
</svg>
