<svg width="30" height="29" viewBox="0 0 30 29" fill="none" xmlns="http://www.w3.org/2000/svg">
<path d="M18.756 22.123C21.9552 20.7871 18.9435 15.666 16.3654 13.0645C13.6701 10.3926 8.85364 7.31056 7.30677 10.6856L0.357546 26.084C-0.415891 27.8066 1.18958 29.459 2.92395 28.7324L18.756 22.123ZM1.83411 26.7168L7.68177 13.7441C8.2677 15.2324 9.4513 16.9199 10.9748 18.4551C12.4748 19.9434 14.1154 21.1035 15.5802 21.7012L2.30286 27.2207C1.90442 27.3848 1.64661 27.1387 1.83411 26.7168ZM8.95911 11.0371C9.73255 10.252 12.4045 11.4004 15.2052 14.2246C18.0412 17.0254 19.1662 19.709 18.3927 20.4707C17.6076 21.2676 14.9357 20.1191 12.1232 17.2949C9.31067 14.4941 8.17395 11.8106 8.95911 11.0371Z" fill="white" fill-opacity="0.85"/>
<path d="M10.6819 2.65824C11.385 2.65824 11.971 2.08402 11.971 1.36917C11.971 0.666046 11.385 0.0918274 10.6819 0.0918274C9.95532 0.0918274 9.39282 0.666046 9.39282 1.36917C9.39282 2.08402 9.95532 2.65824 10.6819 2.65824ZM12.2288 4.84964C12.1467 4.41605 11.8655 4.05277 11.4085 4.05277C10.9749 4.06449 10.5296 4.42777 10.6233 4.89652C11.1507 7.65042 11.1507 10.4863 10.6233 13.2871C10.5178 13.7441 10.9749 14.0957 11.3967 14.1074C11.8421 14.1074 12.135 13.7559 12.2171 13.3223C12.7678 10.4629 12.7678 7.67386 12.2288 4.84964ZM17.9241 4.68558C19.1546 4.68558 20.1272 3.70121 20.1272 2.48245C20.1272 1.24027 19.1546 0.279327 17.9241 0.279327C16.6936 0.279327 15.721 1.24027 15.721 2.48245C15.721 3.70121 16.6936 4.68558 17.9241 4.68558ZM15.6975 8.37699C16.2717 8.37699 16.7288 7.90824 16.7288 7.33402C16.7288 6.77152 16.2717 6.30277 15.6975 6.30277C15.135 6.30277 14.6546 6.77152 14.6546 7.33402C14.6546 7.90824 15.135 8.37699 15.6975 8.37699ZM27.4866 3.32621C28.0491 3.32621 28.5061 2.86917 28.5061 2.29495C28.5061 1.72074 28.0491 1.25199 27.4866 1.25199C26.9124 1.25199 26.4553 1.72074 26.4553 2.29495C26.4553 2.86917 26.9124 3.32621 27.4866 3.32621ZM24.0999 4.08792L21.9085 6.27933C21.6038 6.59574 21.6038 7.11136 21.9085 7.42777C22.2366 7.74417 22.7522 7.74417 23.0686 7.42777L25.26 5.24808C25.5647 4.93167 25.5647 4.40433 25.26 4.08792C24.9436 3.78324 24.4163 3.78324 24.0999 4.08792ZM19.7522 8.4473L13.7757 14.4121C13.471 14.7285 13.471 15.2559 13.7757 15.5723C14.0921 15.877 14.6194 15.877 14.9358 15.5723L20.9007 9.59574C21.1936 9.29105 21.1936 8.77542 20.9007 8.4473C20.5725 8.15433 20.0569 8.15433 19.7522 8.4473ZM28.553 13.8379C29.2678 13.8379 29.8421 13.2637 29.8421 12.5371C29.8421 11.834 29.2678 11.2598 28.553 11.2598C27.8264 11.2598 27.2639 11.834 27.2639 12.5371C27.2639 13.2637 27.8264 13.8379 28.553 13.8379ZM23.5139 14.3184C24.5569 14.3184 25.3889 13.5098 25.3889 12.4668C25.3889 11.4356 24.5569 10.6035 23.5139 10.6035C22.4827 10.6035 21.6741 11.4356 21.6741 12.4668C21.6741 13.5098 22.4827 14.3184 23.5139 14.3184ZM28.1077 19.8379C28.8225 19.8379 29.3967 19.2754 29.3967 18.5488C29.3967 17.834 28.8225 17.2598 28.1077 17.2598C27.3928 17.2598 26.8186 17.834 26.8186 18.5488C26.8186 19.2754 27.3928 19.8379 28.1077 19.8379ZM24.5335 17.1191C21.6975 16.5801 18.9202 16.5801 16.0491 17.1191C15.6272 17.2129 15.2639 17.5059 15.2757 17.9395C15.2757 18.373 15.6272 18.8301 16.096 18.7363C18.8967 18.209 21.721 18.1973 24.4866 18.7246C24.9319 18.8184 25.3069 18.3848 25.3186 17.9395C25.3303 17.4824 24.9553 17.2012 24.5335 17.1191Z" fill="white" fill-opacity="0.85"/>
</svg>
