<svg width="23" height="23" viewBox="0 0 23 23" fill="none" xmlns="http://www.w3.org/2000/svg">
<path d="M8.70342 23C9.27742 23 9.73129 22.7463 10.0517 22.2524L22.6662 2.38941C22.9066 2.0023 23 1.70863 23 1.40161C23 0.667411 22.5194 0.186859 21.7853 0.186859C21.2513 0.186859 20.9576 0.360394 20.6373 0.867653L8.65003 19.9698L2.42948 11.827C2.09576 11.3598 1.76205 11.173 1.28149 11.173C0.520603 11.173 0 11.6935 0 12.4277C0 12.7348 0.133489 13.0819 0.387116 13.4022L7.31516 22.2257C7.71562 22.7463 8.12943 23 8.70342 23Z" fill="#00F5A0"/>
</svg>
