<svg width="45" height="23" viewBox="0 0 45 23" fill="none" xmlns="http://www.w3.org/2000/svg">
<path d="M9.00584 10.6563C11.1972 10.6563 13.084 8.6875 13.084 6.14454C13.084 3.62501 11.1855 1.76173 9.00584 1.76173C6.83788 1.76173 4.92772 3.67189 4.92772 6.16798C4.92772 8.6875 6.82616 10.6563 9.00584 10.6563ZM2.4785 21.2383H15.5332C17.0215 21.2383 17.5957 20.6524 17.5957 19.5977C17.5957 16.3516 14.291 12.4492 9.00584 12.4492C3.72069 12.4492 0.416 16.3516 0.416 19.5977C0.416 20.6524 0.990219 21.2383 2.4785 21.2383Z" fill="white" fill-opacity="0.85"/>
<path d="M36.0058 10.6563C38.1972 10.6563 40.084 8.6875 40.084 6.14454C40.084 3.62501 38.1855 1.76173 36.0058 1.76173C33.8262 1.76173 31.916 3.67189 31.916 6.16798C31.916 8.6875 33.8262 10.6563 36.0058 10.6563ZM29.4785 21.2383H42.5215C44.0098 21.2383 44.584 20.6524 44.584 19.5977C44.584 16.3516 41.291 12.4492 36.0058 12.4492C30.709 12.4492 27.416 16.3516 27.416 19.5977C27.416 20.6524 27.9902 21.2383 29.4785 21.2383Z" fill="white" fill-opacity="0.85"/>
<path d="M14.6426 22.832H30.3691C32.6426 22.832 33.9668 21.4375 33.9668 19.6797C33.9668 15.7422 29.4551 10.8906 22.5058 10.8906C15.5683 10.8906 11.0449 15.7422 11.0449 19.6797C11.0449 21.4375 12.3808 22.832 14.6426 22.832Z" fill="#242424"/>
<path d="M22.5176 10.3867C25.0254 10.3867 27.2051 8.13673 27.2051 5.20704C27.2051 2.31251 25.0254 0.167984 22.5176 0.167984C20.0098 0.167984 17.8301 2.35939 17.8301 5.23048C17.8301 8.13673 19.998 10.3867 22.5176 10.3867ZM14.6426 21.2383H30.3691C31.623 21.2383 32.373 20.6524 32.373 19.6797C32.373 16.6563 28.5879 12.4844 22.5058 12.4844C16.4355 12.4844 12.6504 16.6563 12.6504 19.6797C12.6504 20.6524 13.4004 21.2383 14.6426 21.2383Z" fill="white" fill-opacity="0.85"/>
</svg>
