<svg width="33" height="34" viewBox="0 0 33 34" fill="none" xmlns="http://www.w3.org/2000/svg">
<path d="M4.39441 33.1424H28.6056C31.5446 33.1424 33 31.687 33 28.804V20.519C33 19.2455 32.8321 18.6157 32.2023 17.86L27.3741 11.8702C25.7367 9.85489 24.729 8.67933 22.2519 8.67933H10.7621C8.27099 8.67933 7.27736 9.85489 5.63996 11.8702L0.797711 17.86C0.181934 18.6157 0 19.2455 0 20.519V28.804C0 31.687 1.46947 33.1424 4.39441 33.1424ZM2.86895 18.6717L7.82316 12.416C8.50891 11.5483 9.57252 10.6526 10.5941 10.6526H22.4058C23.4275 10.6526 24.4911 11.5483 25.1768 12.416L30.1451 18.6717C30.7048 19.3854 30.5089 19.6654 29.7391 19.6654H20.8244C20.0967 19.6654 19.7609 20.2251 19.7609 20.7989V20.8549C19.7609 22.4784 18.4873 24.1856 16.5 24.1856C14.5268 24.1856 13.2532 22.4784 13.2532 20.8549V20.7989C13.2532 20.2251 12.9033 19.6654 12.1756 19.6654H3.28881C2.4771 19.6654 2.32315 19.3435 2.86895 18.6717ZM4.42239 30.8892C3.0229 30.8892 2.25318 30.1335 2.25318 28.6781V21.7225H11.126C11.4618 24.3397 13.659 26.2709 16.5 26.2709C19.341 26.2709 21.5382 24.3256 21.874 21.7225H30.7468V28.6781C30.7468 30.1335 29.9631 30.8892 28.5776 30.8892H4.42239Z" fill="#00F5A0"/>
<path d="M16.5 0.0444641C14.7227 0.0444641 13.2392 1.49994 13.2392 3.26329V18.4198C13.2392 20.1832 14.7227 21.6527 16.5 21.6527C18.2774 21.6527 19.7609 20.1832 19.7609 18.4198V3.26329C19.7609 1.49994 18.2774 0.0444641 16.5 0.0444641Z" fill="#181818"/>
<path d="M16.5 19.4974C16.7939 19.4974 17.0318 19.4135 17.3117 19.1336L22.042 14.5712C22.2519 14.3613 22.3639 14.1234 22.3639 13.8295C22.3639 13.2557 21.9301 12.8499 21.3562 12.8499C21.0763 12.8499 20.7824 12.9618 20.5865 13.1857L18.4734 15.4388L17.5217 16.4326L17.6196 14.3332V3.26329C17.6196 2.6755 17.1018 2.18569 16.5 2.18569C15.8982 2.18569 15.3944 2.6755 15.3944 3.26329V14.3332L15.4783 16.4326L14.5268 15.4388L12.4135 13.1857C12.2036 12.9618 11.9097 12.8499 11.6298 12.8499C11.056 12.8499 10.6361 13.2557 10.6361 13.8295C10.6361 14.1234 10.7481 14.3613 10.958 14.5712L15.6883 19.1336C15.9682 19.4135 16.2201 19.4974 16.5 19.4974Z" fill="#00F5A0"/>
</svg>
