<svg width="26" height="23" viewBox="0 0 26 23" fill="none" xmlns="http://www.w3.org/2000/svg">
<path d="M1.38281 14.1192L8.91796 9.75977L14.3437 14.4121L23.9882 8.66992L23.25 7.47461L14.4375 12.7246L9.03515 8.0957L1.38281 12.5137V14.1192ZM8.76562 11.3418C9.91406 11.3418 10.8515 10.4043 10.8515 9.25586C10.8515 8.10742 9.91406 7.18164 8.76562 7.18164C7.61718 7.18164 6.67968 8.10742 6.67968 9.25586C6.67968 10.4043 7.61718 11.3418 8.76562 11.3418ZM14.2968 15.6426C15.4453 15.6426 16.3711 14.7051 16.3711 13.5566C16.3711 12.4082 15.4453 11.4824 14.2968 11.4824C13.1484 11.4824 12.2109 12.4082 12.2109 13.5566C12.2109 14.7051 13.1484 15.6426 14.2968 15.6426ZM23.1328 10.3106C24.2812 10.3106 25.2187 9.37305 25.2187 8.22461C25.2187 7.07617 24.2812 6.13867 23.1328 6.13867C21.9843 6.13867 21.0468 7.07617 21.0468 8.22461C21.0468 9.37305 21.9843 10.3106 23.1328 10.3106Z" fill="white" fill-opacity="0.85"/>
<path d="M0.152344 21.4082C0.152344 21.9707 0.527344 22.334 1.08984 22.334H24.3984C24.914 22.334 25.3476 21.9238 25.3476 21.3965C25.3476 20.8809 24.914 20.459 24.3984 20.459H2.36718C2.12109 20.459 2.03906 20.377 2.03906 20.1309V1.60351C2.03906 1.09961 1.61718 0.666016 1.10156 0.666016C0.574219 0.666016 0.152344 1.09961 0.152344 1.60351V21.4082Z" fill="white" fill-opacity="0.85"/>
</svg>
