<svg width="34" height="31" viewBox="0 0 34 31" fill="none" xmlns="http://www.w3.org/2000/svg">
<path d="M29.0032 20.3798C29.5348 20.739 30.1957 20.6096 30.5836 20.0637C32.4225 17.5352 33.5 14.0585 33.5 10.5099C33.5 6.96133 32.4369 3.45585 30.5836 0.956054C30.1957 0.395754 29.5348 0.280821 29.0032 0.639988C28.486 0.999154 28.3854 1.67439 28.8165 2.26341C30.3824 4.47588 31.2732 7.44978 31.2732 10.5099C31.2732 13.5699 30.3537 16.5152 28.8165 18.7564C28.3998 19.3454 28.486 20.0206 29.0032 20.3798Z" fill="#00F5A0"/>
<path d="M23.6873 16.6301C24.1614 16.9606 24.851 16.8599 25.2245 16.2997C26.3307 14.8486 26.9916 12.708 26.9916 10.5099C26.9916 8.3118 26.3307 6.18552 25.2245 4.70576C24.851 4.15983 24.1614 4.0449 23.6873 4.38969C23.0982 4.79196 23.012 5.51029 23.4574 6.09933C24.305 7.24866 24.7648 8.84336 24.7648 10.5099C24.7648 12.1764 24.2906 13.7568 23.4574 14.9205C23.0264 15.5239 23.0982 16.2135 23.6873 16.6301Z" fill="#00F5A0"/>
<path d="M4.0342 30.7525H22.0788C24.4636 30.7525 25.5986 30.0341 25.5986 28.4539C25.5986 24.6897 20.8576 19.2447 13.0565 19.2447C5.25537 19.2447 0.5 24.6897 0.5 28.4539C0.5 30.0341 1.63497 30.7525 4.0342 30.7525ZM3.3446 28.5831C2.97106 28.5831 2.81303 28.4826 2.81303 28.1808C2.81303 25.8103 6.46217 21.4142 13.0565 21.4142C19.6508 21.4142 23.2855 25.8103 23.2855 28.1808C23.2855 28.4826 23.1419 28.5831 22.7684 28.5831H3.3446ZM13.0565 17.449C16.4757 17.449 19.2629 14.4175 19.2629 10.711C19.2629 7.03312 16.5045 4.14542 13.0565 4.14542C9.65156 4.14542 6.85007 7.09058 6.85007 10.7397C6.86444 14.432 9.65156 17.449 13.0565 17.449ZM13.0565 15.2796C10.9589 15.2796 9.16311 13.2827 9.16311 10.7397C9.16311 8.23991 10.9302 6.31478 13.0565 6.31478C15.2115 6.31478 16.9499 8.19682 16.9499 10.711C16.9499 13.2539 15.1828 15.2796 13.0565 15.2796Z" fill="#00F5A0"/>
</svg>
