<svg width="28" height="27" viewBox="0 0 28 27" fill="none" xmlns="http://www.w3.org/2000/svg">
<path d="M14.4329 25.5601C14.6204 25.5601 14.9017 25.4898 15.2064 25.3375C21.8743 21.8453 24.0189 20.0992 24.0189 15.8922V7.05619C24.0189 5.84916 23.4915 5.46244 22.5189 5.05228C21.1478 4.48978 16.7649 2.89603 15.3939 2.42728C15.0892 2.32182 14.761 2.26322 14.4329 2.26322C14.1048 2.26322 13.7767 2.33353 13.4603 2.42728C12.0892 2.8726 7.71805 4.5015 6.34696 5.05228C5.36258 5.45072 4.84696 5.84916 4.84696 7.05619V15.8922C4.84696 20.0992 7.10867 21.6461 13.6595 25.3375C13.9524 25.5015 14.2454 25.5601 14.4329 25.5601Z" fill="white" fill-opacity="0.85"/>
<path d="M23.3392 26.0406C24.2298 26.9195 25.6712 26.9312 26.5501 26.0406C27.429 25.1617 27.4407 23.732 26.5501 22.8297L4.67117 0.962438C3.79227 0.083532 2.36258 0.071813 1.46023 0.939001C0.569609 1.80619 0.55789 3.29447 1.44852 4.17338L23.3392 26.0406Z" fill="#242424"/>
<path d="M24.3118 25.0797C24.6634 25.4312 25.2376 25.4312 25.5892 25.0797C25.929 24.7281 25.9407 24.1539 25.5892 23.8023L3.69852 1.92338C3.34696 1.58353 2.77274 1.58353 2.40946 1.92338C2.06961 2.26322 2.06961 2.86088 2.40946 3.20072L24.3118 25.0797Z" fill="white" fill-opacity="0.85"/>
</svg>
