<svg width="45" height="45" fill="none" xmlns="http://www.w3.org/2000/svg"><g clip-path="url(#clip0_1_295)"><path d="M21.238.035a2.17 2.17 0 01-.36.032c-.151.003-.38.017-.509.035-.13.02-.392.052-.585.073-.484.053-.743.095-1.542.246-.407.077-.456.084-1.034.227-.435.105-.768.197-1.104.298a5.255 5.255 0 01-.333.095.43.43 0 00-.123.045.983.983 0 01-.21.07.944.944 0 00-.207.074.172.172 0 01-.098.032.335.335 0 00-.126.031 3.093 3.093 0 01-.27.109c-.21.077-.28.105-.462.179-.056.024-.13.052-.169.066a7.247 7.247 0 00-.42.175 6.206 6.206 0 01-.246.106 54.75 54.75 0 00-1.734.865c-.186.109-.337.193-.516.295a4.769 4.769 0 00-.227.14.318.318 0 01-.13.066c-.021 0-.039.014-.039.035 0 .018-.017.035-.038.035-.018 0-.13.064-.242.14-.112.078-.224.14-.242.14-.02 0-.038.015-.038.029 0 .017-.042.052-.095.08a.898.898 0 00-.165.11c-.038.034-.087.062-.112.062-.024 0-.049.014-.056.028-.003.018-.112.098-.238.182a2.64 2.64 0 00-.246.176c-.01.01-.073.06-.14.105-.066.045-.13.094-.14.105-.01.01-.074.06-.14.105a1.627 1.627 0 00-.168.13 3.338 3.338 0 01-.176.144 2.164 2.164 0 00-.147.112c-.01.01-.105.087-.21.175s-.2.165-.21.175c-.01.01-.12.105-.246.21-.287.242-1.79 1.732-1.99 1.974-.08.101-.193.227-.246.287-.052.056-.266.319-.473.578-.21.26-.4.498-.42.526-.025.028-.08.109-.13.175a14.759 14.759 0 00-.617.88 1.02 1.02 0 01-.094.13c-.035.034-.06.077-.06.09 0 .015-.077.14-.175.284-.095.144-.175.27-.175.28 0 .015-.05.092-.106.176a.932.932 0 00-.105.175c0 .014-.031.07-.07.123-.126.179-.922 1.724-1.062 2.071-.035.084-.098.225-.136.312-.039.088-.085.19-.099.228-.017.038-.06.144-.101.235a.92.92 0 00-.074.203.283.283 0 01-.031.098 3.093 3.093 0 00-.109.27 3.086 3.086 0 01-.109.27.334.334 0 00-.031.126.178.178 0 01-.028.095.781.781 0 00-.074.192 2.38 2.38 0 01-.07.228c-.031.074-.14.428-.207.666a21.142 21.142 0 00-.567 2.506c-.021.144-.053.333-.07.42a9.91 9.91 0 00-.07.526 30.94 30.94 0 01-.07.614c-.064.476-.088 1.097-.088 2.19s.024 1.714.087 2.19c.018.134.05.41.07.614.025.203.053.438.07.525.018.088.05.277.07.421.046.294.162.89.21 1.104.127.547.211.887.358 1.402.067.238.176.592.207.666.014.038.05.14.07.227a.688.688 0 00.074.19.202.202 0 01.028.098c0 .035.014.091.031.126.018.032.067.154.109.27.042.116.091.238.109.27a.283.283 0 01.031.098.92.92 0 00.074.203c.042.091.084.196.101.235.014.038.06.14.099.228.038.087.101.228.136.312.14.347.936 1.892 1.062 2.071a.43.43 0 01.07.123c0 .01.05.09.105.175.06.084.106.161.106.175 0 .01.08.137.175.28.098.144.175.27.175.284 0 .014.025.056.06.092a.988.988 0 01.094.13 14.762 14.762 0 00.617.879c.05.066.105.147.13.175.02.028.21.266.42.526.207.26.42.519.473.578.053.056.165.186.246.287.2.242 1.703 1.732 1.99 1.974.127.105.235.2.246.21.01.01.105.087.21.175s.2.165.21.175c.01.01.074.06.147.112.07.053.148.12.176.144.024.025.101.084.168.13.066.045.13.094.14.105.01.01.074.06.14.105.067.046.13.095.14.105.011.014.12.091.246.175.126.085.235.165.238.183.007.014.032.028.056.028.025 0 .074.028.112.06a.755.755 0 00.165.111c.053.029.095.064.095.081 0 .014.02.028.045.028.025 0 .077.028.116.06.088.08.26.185.34.21.031.01.06.032.06.049 0 .018.017.032.038.032.021 0 .08.028.13.066.052.035.154.098.224.14.182.102.333.186.519.295.16.094 1.608.813 1.734.865.039.014.151.063.246.105.098.043.207.092.245.106.039.017.144.06.235.101a.918.918 0 00.203.074c.021 0 .063.014.098.032.032.017.154.066.27.108.116.042.239.091.27.109a.336.336 0 00.126.031c.035 0 .077.014.095.028a.78.78 0 00.193.074c.087.021.189.056.227.07.074.032.428.14.666.207.515.147.824.224 1.402.357.224.053.684.144.904.179.109.017.298.05.42.067.443.077 1.122.157 1.813.217.568.049 2.867.049 3.434 0 .687-.06 1.374-.14 1.805-.214.116-.02.305-.053.42-.07.183-.028.586-.109 1.087-.217.288-.06 1.048-.263 1.437-.382.137-.042.284-.084.333-.095a.393.393 0 00.123-.046c.02-.013.116-.045.21-.07a.989.989 0 00.21-.073.153.153 0 01.095-.032.335.335 0 00.126-.031c.032-.018.154-.067.27-.109.116-.042.238-.091.27-.108a.282.282 0 01.098-.032.918.918 0 00.203-.074c.091-.042.197-.084.235-.101.039-.014.15-.063.245-.105.099-.042.207-.092.246-.106a57.05 57.05 0 001.735-.865c.185-.109.336-.193.518-.295.07-.042.172-.105.225-.14a.318.318 0 01.13-.066c.02 0 .038-.014.038-.032 0-.017.028-.038.063-.049.077-.025.249-.13.336-.21.039-.032.092-.06.116-.06.025 0 .046-.014.046-.028 0-.017.042-.052.098-.08a.815.815 0 00.16-.113c.04-.031.089-.06.113-.06.025 0 .05-.013.056-.027a1.37 1.37 0 01.238-.182c.127-.085.235-.162.246-.176.01-.01.073-.06.14-.105.067-.046.13-.095.14-.105.01-.01.074-.06.14-.105.067-.046.144-.105.169-.13.028-.024.105-.091.175-.144.073-.052.136-.101.147-.112.01-.01.105-.087.21-.175s.2-.165.21-.175c.011-.01.12-.105.246-.21.287-.242 1.79-1.732 1.99-1.974.081-.101.19-.23.246-.287.133-.147.35-.41.673-.824.098-.126.196-.252.22-.28.025-.028.081-.109.13-.175a14.794 14.794 0 00.617-.88.997.997 0 01.095-.13c.035-.035.06-.077.06-.09 0-.015.08-.14.174-.284.099-.144.176-.27.176-.28 0-.015.049-.092.105-.176a.931.931 0 00.105-.175c0-.014.032-.07.07-.123.126-.179.922-1.724 1.062-2.071.035-.084.098-.225.137-.312.038-.088.084-.19.098-.228.017-.039.06-.144.102-.235a.923.923 0 00.073-.203c0-.021.014-.063.032-.098.017-.032.066-.154.108-.27.042-.116.091-.238.109-.27a.336.336 0 00.031-.126c0-.035.014-.077.029-.098a.691.691 0 00.073-.19 2.37 2.37 0 01.07-.227c.032-.074.14-.428.207-.666a21.142 21.142 0 00.567-2.506c.022-.144.053-.333.07-.42a9.91 9.91 0 00.07-.526c.022-.204.05-.431.064-.508.028-.183.028-4.41 0-4.592a9.816 9.816 0 01-.063-.508c-.025-.203-.053-.438-.07-.526a8.09 8.09 0 01-.07-.42c-.046-.294-.162-.89-.21-1.104-.127-.547-.21-.887-.358-1.402a10.184 10.184 0 00-.207-.666 2.349 2.349 0 01-.07-.228.786.786 0 00-.073-.192.178.178 0 01-.029-.095.335.335 0 00-.031-.126 3.08 3.08 0 01-.109-.27 3.112 3.112 0 00-.108-.27.283.283 0 01-.032-.098.923.923 0 00-.073-.203c-.043-.091-.085-.197-.102-.235a6.303 6.303 0 00-.105-.245c-.042-.098-.091-.207-.105-.246a57.06 57.06 0 00-.866-1.734 27.505 27.505 0 01-.294-.52 6.965 6.965 0 00-.14-.223.386.386 0 01-.067-.113 2.1 2.1 0 00-.176-.284 2.61 2.61 0 01-.175-.283c0-.014-.024-.056-.06-.091a1.01 1.01 0 01-.094-.13 17.42 17.42 0 00-.54-.775c-.063-.087-.15-.203-.192-.26a34.397 34.397 0 00-.908-1.124c-.053-.06-.165-.186-.245-.287-.2-.242-1.704-1.732-1.991-1.974a8.857 8.857 0 01-.245-.21c-.011-.01-.106-.087-.21-.175l-.211-.175c-.01-.01-.074-.06-.147-.112a3.318 3.318 0 01-.175-.144 1.635 1.635 0 00-.169-.13 1.684 1.684 0 01-.14-.105c-.01-.01-.073-.06-.14-.105a1.681 1.681 0 01-.14-.105 2.647 2.647 0 00-.245-.176 1.37 1.37 0 01-.239-.182c-.007-.014-.031-.028-.056-.028-.024 0-.073-.028-.112-.063a.989.989 0 00-.161-.109c-.056-.028-.098-.063-.098-.08 0-.014-.018-.028-.039-.028-.018 0-.13-.063-.242-.14a1.219 1.219 0 00-.242-.14c-.02 0-.038-.018-.038-.036 0-.02-.018-.035-.039-.035a.318.318 0 01-.13-.066 6.983 6.983 0 00-.224-.14 27.394 27.394 0 01-.518-.295 56.916 56.916 0 00-1.735-.865c-.039-.014-.147-.064-.245-.106a10.538 10.538 0 00-.614-.255 8.855 8.855 0 00-.438-.165 3.085 3.085 0 01-.27-.109.334.334 0 00-.126-.031.172.172 0 01-.098-.032.87.87 0 00-.207-.073 1.158 1.158 0 01-.21-.07.393.393 0 00-.123-.046 5.999 5.999 0 01-.333-.095 18.99 18.99 0 00-.963-.266c-.351-.091-.39-.102-.982-.224a23.707 23.707 0 00-2.786-.393c-.522-.045-2.947-.067-3.067-.028z" fill="#DDDEDB"/></g><g clip-path="url(#clip1_1_295)"><path d="M21.687.018c-.01.01-.266.035-.575.052-3.729.231-7.16 1.321-10.37 3.294-2.198 1.35-4.339 3.284-5.962 5.38C.533 14.233-.929 21.294.778 28.054c1.437 5.703 5.166 10.697 10.262 13.757.599.36 1.654.911 2.278 1.191 2.033.919 4.447 1.588 6.543 1.823.627.07 2.204.175 2.618.175.6 0 2.113-.095 2.79-.175a22.413 22.413 0 0011.31-4.742 22.954 22.954 0 004.45-4.738c2.019-2.899 3.368-6.344 3.813-9.712.151-1.17.158-1.279.158-3.119 0-1.952-.025-2.348-.231-3.641-.782-4.882-3.26-9.498-6.908-12.855-2.863-2.64-6.13-4.406-9.876-5.349C26.709.35 25.539.175 23.849.053c-.673-.05-2.123-.074-2.162-.035zm2.81.977c2.832.28 5.23.968 7.693 2.212 2.236 1.128 4.01 2.418 5.73 4.174a20.779 20.779 0 013.894 5.45c1.24 2.474 1.931 4.91 2.19 7.741.078.8.085 2.78.022 3.558-.316 3.704-1.507 7.191-3.494 10.198a27.159 27.159 0 01-1.63 2.173c-.463.54-1.791 1.865-2.313 2.31a21.43 21.43 0 01-4.644 3.038 21.366 21.366 0 01-12.494 1.938 21.047 21.047 0 01-6.554-2.05 20.687 20.687 0 01-5.411-3.852 21.218 21.218 0 01-4.223-5.775C.933 27.452.372 22.16 1.672 17.05a21.27 21.27 0 014.815-8.972 21.572 21.572 0 016.323-4.854c2.561-1.296 5.144-2.015 8.148-2.26.743-.063 2.776-.042 3.54.031zm-3.693 1.269c-.035.032-.056.116-.056.21 0 .13.01.154.08.172.042.01.859.014 1.812.01l1.735-.01.01-.186c.011-.168.004-.185-.08-.217-.056-.021-.743-.035-1.77-.035-1.479 0-1.682.007-1.731.056zm.487 1.63a19.09 19.09 0 00-5.72 1.314c-.575.224-2 .932-2.569 1.276a18.852 18.852 0 00-6.01 5.765 18.934 18.934 0 00-3.035 8.972c-.05.729-.021 2.397.052 3.066.568 5.11 2.983 9.554 6.908 12.708 2.85 2.292 6.182 3.631 10.006 4.017.589.06 2.688.06 3.26 0 2.414-.253 4.6-.873 6.623-1.886a19.095 19.095 0 003.75-2.46c.508-.424 1.735-1.65 2.18-2.18 2.408-2.877 3.855-6.245 4.307-10.023.067-.558.08-.835.08-1.963.004-1.339-.006-1.497-.157-2.593-.498-3.59-1.983-6.86-4.391-9.656a25.596 25.596 0 00-1.686-1.696c-2.986-2.629-6.47-4.164-10.496-4.616-.568-.063-2.489-.094-3.102-.045zm1.532 11.292c.154.533.7 1.514 1.366 2.47.838 1.203 1.63 2.079 2.394 2.654.277.206.799.473.932.473.154 0 .123.045-.077.115-.97.347-3.06 2.51-4.051 4.195-.323.55-.582 1.192-.66 1.62-.03.164-.073.171-.1.014-.099-.512-.54-1.395-1.189-2.37-.873-1.31-1.822-2.407-2.565-2.961-.298-.224-.887-.543-1-.543-.034 0-.076-.018-.087-.035-.01-.021.004-.035.032-.035.101 0 .578-.274.904-.519 1.342-1.013 3.007-3.042 3.613-4.405.158-.358.337-.912.344-1.07.003-.073.01-.066.038.036.018.066.067.231.106.36zm-7.017 1.826a.221.221 0 01-.06.06c-.056.045-.06.041-.014-.015s.074-.073.074-.045zm-.666.666a.221.221 0 01-.06.06c-.055.045-.059.041-.013-.015.045-.056.073-.073.073-.045zm-6.974-9.53L6.91 9.407c-.028.035.102.22.179.255.07.032.105.028.186-.024.15-.095 2.432-2.4 2.432-2.457-.004-.088-.2-.277-.287-.277-.007 0-.572.561-1.255 1.244zM35.55 6.94a.358.358 0 00-.133.123c-.052.08-.056.109-.02.175.048.088 2.428 2.47 2.466 2.47.074 0 .225-.111.26-.192.035-.077.035-.108 0-.154-.098-.126-2.33-2.345-2.411-2.394a.18.18 0 00-.162-.028zM2.327 20.685c-.056.024-.08.08-.098.192-.028.221-.025 3.113.007 3.288.025.136.028.14.182.15.28.014.263.137.274-1.717.007-.911 0-1.707-.01-1.766-.029-.158-.194-.228-.355-.147zm40.202.014c-.066.049-.07.098-.08 1.657-.007.883.003 1.683.017 1.777.028.172.028.172.186.182.28.014.263.137.273-1.717.007-.911 0-1.707-.01-1.766-.028-.168-.242-.242-.386-.133zM7.07 35.4a.37.37 0 00-.112.14c-.053.098-.05.112.014.2.07.094 2.285 2.302 2.394 2.386.133.098.403-.175.3-.308-.097-.123-2.32-2.338-2.407-2.394-.105-.073-.105-.073-.189-.024zm29.555 1.205l-1.255 1.258c-.028.036.102.221.179.256.07.032.105.028.186-.024.15-.095 2.432-2.4 2.432-2.457-.004-.088-.2-.277-.287-.277-.008 0-.572.56-1.255 1.244zm-15.82 5.818a.23.23 0 00-.06.116c-.01.13.014.235.053.26.063.041 3.553.034 3.578-.008.039-.063.028-.319-.014-.36-.032-.032-.512-.047-1.773-.053-1.546-.008-1.735-.004-1.784.045z" fill="#BABBBB"/></g><g clip-path="url(#clip2_1_295)"><path d="M19.9.2a.185.185 0 00.087 0c.021-.01.004-.018-.045-.018-.05 0-.067.007-.043.018zm5.169 0c.032.007.08.007.105 0 .021-.01-.003-.018-.063-.018-.056 0-.077.007-.042.018zm.368.035c.024.01.056.007.066-.004.014-.01-.006-.02-.045-.017-.039 0-.05.01-.021.02zm-6.08.035a.26.26 0 00.104 0c.022-.01-.003-.018-.063-.018-.056 0-.077.007-.042.018zm-.229.035a.185.185 0 00.088 0c.021-.01.004-.018-.045-.018-.05 0-.067.007-.043.018zm-.227.035c.031.007.08.007.105 0 .02-.01-.004-.018-.063-.018-.056 0-.077.007-.042.018zm7.314.01a.711.711 0 00.175.029c.077 0 .077-.004-.017-.029a.944.944 0 00-.176-.028c-.056 0-.052.007.018.028zm-7.507.025a.185.185 0 00.088 0c.02-.01.003-.018-.046-.018-.05 0-.067.008-.042.018zM18.48.41c.032.007.08.007.105 0 .021-.01-.003-.017-.063-.017-.056 0-.077.007-.042.017zm8.113 0c.025.01.056.007.067-.003.014-.011-.007-.021-.046-.018-.038 0-.049.01-.02.021zm-8.306.035a.185.185 0 00.088 0c.021-.01.003-.017-.046-.017s-.066.007-.042.017zm8.752.067c.343.08.417.098.627.136.056.014.116.028.126.035a.756.756 0 00.144.035c.157.032.22.046.235.053.003.007.017.01.035.014a.367.367 0 01.07.032c.02.017.042.02.042.01s.063.004.14.032c.077.028.14.042.14.028 0-.01.025 0 .053.024.028.025.052.035.052.025 0-.01.091.01.204.049.108.038.203.066.21.066.003 0 .014.004.024.004l.053.014c.02.003.042.014.053.017.01.004.035.014.052.018.021.003.042.014.053.018.01.003.035.014.052.017.021.004.039.01.046.018a.42.42 0 00.07.017.713.713 0 01.122.039c.032.014.07.028.088.031a.371.371 0 00.042.018c.01.003.035.014.053.017.02.004.042.014.052.018.01.003.035.014.053.017.02.004.042.014.053.018.01.003.034.014.052.017.021.004.042.014.053.018.01.003.035.014.052.017.021.004.042.014.053.018.01.003.028.01.045.014.014.003.088.035.165.07.077.035.165.067.193.074.028.007.056.014.063.017.003.007.017.01.035.014.014.007.073.028.13.056.332.147.403.175.417.175.007 0 .073.028.147.06.077.032.143.06.154.063.15.042 1.784.859 2.068 1.037.049.032.27.162.49.295.221.13.586.357.806.501.221.144.407.26.414.256.007-.004.039.02.07.06.032.035.161.133.288.217.126.084.259.182.294.217a.265.265 0 00.098.063c.018 0 .067.035.112.077.046.046.207.179.361.298.154.123.32.252.365.295.045.042.154.133.242.203.087.07.189.158.23.196.043.039.208.19.369.333.505.46 1.37 1.342 1.794 1.836l.133.158c.21.238.8.985.834 1.048.022.039.06.091.085.12.024.024.098.122.164.22.067.095.158.214.2.263a.49.49 0 01.102.158.241.241 0 00.049.087c.042.032.245.344.245.379a.06.06 0 00.028.049c.035.014.252.33.252.364 0 .014.036.074.081.133.046.06.123.183.175.274.095.164.172.242.092.09-.337-.626-1.259-1.962-1.921-2.778a23.405 23.405 0 00-3.298-3.316A22.303 22.303 0 0027.238.512c-.536-.112-.67-.116-.2 0zM18.111.48a.185.185 0 00.088 0c.02-.01.003-.017-.046-.017s-.066.007-.042.017zm-.175.035a.185.185 0 00.087 0c.022-.01.004-.017-.045-.017-.05 0-.067.007-.042.017zm-.175.035a.185.185 0 00.087 0c.021-.01.004-.017-.045-.017-.05 0-.067.007-.042.017zm-.14.035c.024.01.056.007.066-.003.014-.01-.007-.021-.046-.018-.038 0-.049.01-.02.021zm-.176.035c.025.01.056.007.067-.003.014-.01-.007-.021-.046-.018-.038 0-.049.01-.02.021zm-.14.035c.025.01.056.007.067-.003.014-.01-.007-.021-.046-.018-.039 0-.049.01-.02.021zm-.14.035c.024.011.056.007.067-.003.014-.01-.008-.021-.046-.018-.039 0-.05.01-.021.021zm3.652.028c-4.458.432-8.103 1.83-11.57 4.44C6.96 6.884 4.84 9.337 3.453 11.864a36.85 36.85 0 00-.852 1.718c-.644 1.503-.928 2.348-1.265 3.732a19.068 19.068 0 00-.319 1.577l-.07.42c-.028.148-.108 1.007-.168 1.816a2.068 2.068 0 00-.003.4c.014.024.014.066-.004.101-.042.074-.056 1.308-.025 2.005.102 2.37.733 5.075 1.714 7.367.477 1.114 1.304 2.639 1.963 3.617a21.948 21.948 0 008.138 7.282c1.202.624 2.79 1.255 3.928 1.563a25.81 25.81 0 001.595.383c.22.038.442.084.49.098.05.01.12.024.159.028.038.003.119.017.175.028.126.028.536.087.753.112.088.007.197.024.242.035.05.01.196.024.333.035.137.01.34.035.452.053.112.02.291.031.403.031.15-.004 1.518-.007 2.11-.007a.6.6 0 01.087.01c.074.022 1.048-.045 1.613-.112 2.758-.315 5.152-1.034 7.535-2.253 2.456-1.258 4.363-2.72 6.294-4.83a21.296 21.296 0 002.478-3.336c.14-.228.252-.42.252-.428 0-.003.077-.143.172-.304.364-.635.957-1.896 1.262-2.689.063-.164.13-.329.143-.367.288-.709.67-2.072.89-3.172.666-3.344.502-7.199-.452-10.476-.816-2.807-2.281-5.534-4.216-7.85-.511-.61-.623-.733-1.405-1.51a21 21 0 00-5.453-3.926c-1.118-.564-1.998-.929-3.014-1.251-.154-.05-.372-.116-.484-.154-.806-.256-3.056-.726-3.771-.785a1.753 1.753 0 01-.245-.032 3.79 3.79 0 00-.39-.038c-.203-.014-.388-.043-.41-.06-.03-.025-.045-.025-.045.003 0 .025-.018.032-.042.018-.08-.05-2.67-.046-3.182.003zm2.961.193c1.518.112 2.72.302 4.1.652a22.018 22.018 0 016.544 2.909c4.49 2.961 7.738 7.532 9.031 12.718.656 2.629.824 5.282.495 7.868a21.566 21.566 0 01-2.068 6.922 21 21 0 01-4.1 5.73 21.492 21.492 0 01-11.759 6.042c-3.62.603-7.332.26-10.812-1.002-5.225-1.896-9.473-5.67-11.947-10.612a21.371 21.371 0 01-1.84-5.25 21.603 21.603 0 012.485-15.305 21.815 21.815 0 015.639-6.34c3.41-2.562 7.363-4.03 11.674-4.328A27.098 27.098 0 0123.779.91zm-5.278.26a.809.809 0 01-.168.031c-.102.014-.14.007-.105-.014.045-.028.308-.049.273-.017zm-.417.07c0 .007-.046.02-.101.028-.06.007-.099.003-.088-.014.017-.028.19-.042.19-.014zm-.36.077c-.011.01-.043.014-.067.003-.029-.01-.018-.02.02-.02.04-.004.06.006.046.017zm-.281.07c-.01.01-.042.014-.067.003-.028-.01-.017-.02.021-.02.039-.004.06.006.046.017zM3.347 12.442a1.968 1.968 0 01-.133.245c-.004 0-.01-.032-.01-.067 0-.038.01-.063.024-.052.035.02.07-.091.042-.133-.01-.021-.004-.028.014-.018.045.028.091-.07.056-.123-.01-.02-.004-.028.014-.017.021.014.046 0 .06-.028.01-.028.028-.053.038-.053.01 0-.038.109-.105.246zm-.179.35c-.02.021-.035.01-.035-.035 0-.046.014-.056.035-.035.025.024.025.046 0 .07zm-.07.14c-.02.021-.035.01-.035-.035 0-.045.014-.056.035-.035.025.025.025.046 0 .07zm-.15.312c-.116.228-.127.239-.165.172-.018-.025-.01-.028.02-.01.036.02.043.013.025-.032-.017-.039-.01-.053.018-.035.028.017.031.007.017-.035-.014-.035-.01-.053.01-.039.022.01.036.014.036.004 0-.007.01-.042.024-.077.018-.046.01-.053-.024-.032-.032.018-.039.014-.021-.014.014-.021.038-.032.056-.021.038.025.077-.084.049-.133-.018-.032-.014-.032.018-.004.035.032.02.088-.064.256zm-.11.267c0 .042-.066.042-.08 0-.014-.032-.003-.042.032-.028.024.01.049.024.049.027zm-.17.343c-.036.032-.04.028-.018-.021.01-.035.031-.053.042-.042.01.01 0 .038-.025.063zm-.06.046c.013.031.006.045-.018.028-.025-.014-.032 0-.018.049.028.08-.028.136-.07.073-.017-.028-.01-.031.021-.014.035.021.042.014.025-.028-.021-.052 0-.164.028-.164.007 0 .021.024.031.056zm-.14.357c.01.018-.004.032-.032.032s-.042-.014-.032-.032c.01-.014.025-.028.032-.028.007 0 .02.014.031.028zm-.043.109c.028-.039.032-.039.021-.004-.014.056-.077.063-.084.007-.007-.024-.003-.02.01.004.015.028.029.024.053-.007zm-.09.255c.017.025.01.029-.022.011-.031-.018-.035-.007-.021.046.025.073-.028.136-.067.077-.017-.032.039-.176.07-.176.008 0 .025.018.04.042zm-.17.488c-.01.028-.024.01-.038-.035-.014-.06-.01-.074.018-.046a.095.095 0 01.02.08zm-.073.126c.004.077-.003.084-.028.035-.02-.032-.024-.077-.014-.095.032-.049.035-.045.042.06zm-.077.196a.245.245 0 01-.045.137c-.025.031-.035.077-.025.105.01.028-.003.07-.031.095-.028.024-.043.066-.032.094.01.028-.004.077-.028.109-.028.028-.046.098-.039.147.007.091.007.091-.028.007-.028-.063-.024-.098.018-.144.031-.031.045-.084.035-.115-.014-.028-.004-.063.014-.077.021-.01.028-.039.017-.06-.017-.024-.007-.028.022-.01.031.017.035.007.02-.046-.013-.039-.006-.08.015-.095.02-.01.028-.035.017-.052-.017-.028.039-.175.063-.175.007 0 .01.038.007.08zm-.252.883c-.01.05-.035.077-.056.063-.021-.014-.028 0-.014.035.01.032.007.067-.007.074-.018.01-.021.06-.01.109.006.052 0 .087-.025.087-.021 0-.035.01-.035.025a.797.797 0 010 .133c-.007.095-.01.098-.039.028-.031-.077-.01-.22.032-.22.014 0 .024-.057.028-.123a.382.382 0 01.042-.172c.02-.025.028-.056.014-.067-.01-.014-.004-.024.02-.024.025 0 .032-.018.018-.042-.014-.021-.01-.028.01-.018.022.014.029.063.022.112zm-.228.743c-.049.063-.067.042-.039-.056.014-.056.029-.066.05-.035a.087.087 0 01-.011.091zm-.074.221c-.003.039-.017.07-.031.07-.035 0-.035-.014-.007-.084.028-.077.045-.07.038.014zm-.06.33c0 .01-.013.027-.034.038-.018.01-.035.004-.035-.014 0-.021.017-.039.035-.039.02 0 .035.008.035.015zM21.453 2.232c-.375.008-.63.029-.659.05-.056.049-.06.283-.003.34.031.031.48.042 1.801.042 1.57 0 1.763-.007 1.78-.057.029-.077.025-.27-.006-.315-.029-.045-1.844-.08-2.913-.06zm.435 1.644c-4.82.203-9.169 2.107-12.53 5.485-3.098 3.112-4.952 7.107-5.362 11.562-.056.578-.056 2.38-.003 2.979.21 2.397.81 4.591 1.805 6.641.967 1.99 2.085 3.557 3.641 5.107 3.15 3.14 7.153 4.98 11.636 5.355.585.049 2.369.049 2.95 0a18.705 18.705 0 009.971-3.901 19.694 19.694 0 002.562-2.425c3.41-3.95 5.043-9.15 4.465-14.233-.483-4.275-2.31-8.078-5.327-11.106-3.087-3.098-7.037-4.963-11.425-5.394a25.952 25.952 0 00-2.383-.07zm2.512.344c.484.056.463.052 1.133.164 3.213.526 6.241 1.92 8.814 4.059.56.462 1.538 1.43 2.06 2.036 2.496 2.895 3.964 6.301 4.353 10.094.018.182.05.686.07 1.12a18.28 18.28 0 01-.371 4.574c-.05.232-.098.46-.105.509a6.99 6.99 0 01-.07.28 17.86 17.86 0 00-.063.245c-.225.919-.684 2.128-1.23 3.242a18.474 18.474 0 01-6.221 7.14c-2.142 1.457-4.942 2.547-7.483 2.915-1.209.175-2.832.242-3.96.165-5.59-.393-10.598-3.217-13.805-7.784a18.526 18.526 0 01-3.172-8.2c-.115-.926-.126-1.126-.122-2.314.003-1.283.031-1.735.189-2.793.378-2.559 1.35-5.11 2.751-7.23A18.032 18.032 0 019.73 9.357a18.154 18.154 0 0110.248-5.043 23.11 23.11 0 011.56-.157c.44-.032 2.442.01 2.863.063zM5.258 16.006c-.039.06-.039.06-.021 0 .01-.035.021-.084.025-.105 0-.032.007-.032.017 0 .01.024 0 .07-.021.105zm-.109.322c-.02.063-.045.105-.052.098-.007-.007.003-.063.024-.126s.046-.105.053-.098c.007.007-.004.063-.025.126zm-.098.274c-.042.07-.049.049-.017-.042.014-.032.031-.05.038-.039.01.007 0 .046-.02.08zm-.07.21c-.042.07-.049.049-.017-.042.014-.032.031-.05.038-.039.01.007 0 .046-.02.08zm17.036-7.307a47.216 47.216 0 01-1.66 2.365l-.513.666a39.495 39.495 0 01-1.093 1.343c-.05.056-.137.16-.2.234-.512.607-1.279 1.427-2.215 2.359-1.353 1.346-1.601 1.612-2.071 2.19a13.55 13.55 0 00-1.227 1.718c-.638 1.012-1.118 2.31-1.265 3.41-.06.445-.024 1.293.07 1.707.28 1.247.887 2.197 1.854 2.926.803.603 1.89 1.027 2.958 1.16.463.056 1.728.025 2.145-.056a9.675 9.675 0 001.535-.42c.463-.172 1.157-.495 1.321-.614.14-.098.151-.091.095.06-.028.073-.116.354-.196.623-.4 1.332-.897 2.625-1.283 3.337-.182.333-.6.967-.953 1.447-.133.182-.239.344-.228.361.021.035 7.44.032 7.44-.007 0-.017-.024-.049-.056-.073-.112-.099-.988-1.143-1.195-1.43-.54-.754-1.062-2.019-1.43-3.477a35.693 35.693 0 00-.126-.49c-.101-.4-.098-.41.088-.302.238.14 1.006.452 1.447.592 2.047.649 4.097.42 5.692-.627.424-.277 1.114-.943 1.374-1.321.63-.919.932-1.896.935-3.021 0-1.598-.606-3.295-1.759-4.914-.67-.94-.988-1.283-2.793-3.024-1.262-1.213-2.117-2.142-3-3.246a37.105 37.105 0 01-2.594-3.74c-.227-.378-.424-.69-.438-.69-.01 0-.305.431-.659.954zm.796 5.61c.158.568.652 1.48 1.356 2.5 1.223 1.762 2.478 2.954 3.323 3.154.14.031.164.045.108.066-.602.225-1.184.663-2.036 1.532-1.234 1.258-2.106 2.446-2.555 3.483-.13.305-.298.87-.298 1.01 0 .13-.056.007-.133-.287-.137-.52-.536-1.29-1.139-2.198-1.28-1.924-2.523-3.168-3.484-3.49l-.227-.074.189-.077c.519-.21 1.037-.607 1.798-1.367 1.139-1.14 1.955-2.201 2.474-3.217.207-.407.417-.989.47-1.294.031-.178.035-.168.154.26zM8.155 8.16c-.813.813-1.216 1.24-1.216 1.29 0 .087.14.224.232.224.094 0 2.502-2.411 2.502-2.51 0-.087-.14-.224-.231-.224-.042 0-.523.456-1.287 1.22zm27.32-1.14c-.043.046-.078.113-.078.152 0 .094 2.411 2.502 2.51 2.502.087 0 .224-.14.224-.231 0-.095-2.411-2.503-2.51-2.503-.038 0-.105.035-.147.08zM2.347 20.69c-.087.045-.087.045-.098 1.822-.007 1.776-.007 1.776.08 1.797.05.01.144.01.21 0l.124-.024V20.72l-.11-.039c-.062-.02-.111-.039-.115-.039-.003 0-.042.022-.09.046zm40.234 0c-.088.045-.088.045-.098 1.822-.007 1.776-.007 1.776.08 1.797.05.01.144.01.21 0l.123-.024V22.52c0-1.37-.01-1.773-.042-1.801a.253.253 0 00-.273-.032zM7.016 35.477c-.042.045-.077.112-.077.15 0 .095 2.411 2.503 2.51 2.503.087 0 .224-.14.224-.231 0-.095-2.411-2.503-2.51-2.503-.038 0-.105.035-.147.08zm29.597 1.139c-.813.813-1.216 1.24-1.216 1.29 0 .087.14.224.232.224.094 0 2.502-2.411 2.502-2.51 0-.087-.14-.224-.231-.224-.042 0-.523.456-1.287 1.22zm-15.09 5.78c-.432.006-.698.027-.73.048-.056.05-.06.284-.003.34.031.032.48.042 1.801.042 1.57 0 1.763-.007 1.78-.056.029-.077.025-.27-.006-.315-.029-.042-1.665-.078-2.843-.06zM17.025.724c.024.011.056.007.066-.003.014-.01-.007-.021-.045-.018-.039 0-.05.011-.021.021zm-.14.036c.024.01.056.007.066-.004.014-.01-.007-.021-.046-.017-.038 0-.048.01-.02.02zm-.28.07c.024.01.055.007.066-.004.014-.01-.007-.02-.046-.017-.038 0-.049.01-.02.02zM16.36.9c.024.01.056.007.066-.004.014-.01-.007-.02-.045-.017-.039 0-.05.01-.021.02zm-.456.14c.025.01.056.007.067-.004.014-.01-.007-.02-.046-.017-.038 0-.049.01-.02.02zm-1.062.343c-.087.042-.09.05-.017.032.098-.025.21-.08.158-.08a.551.551 0 00-.14.048zm-.508.193c-.028.018-.035.035-.017.035.02 0 .06-.017.087-.035.028-.017.039-.035.018-.035a.238.238 0 00-.088.035zm-.175.07c-.028.018-.035.035-.018.035.021 0 .06-.017.088-.035.028-.017.039-.035.018-.035a.238.238 0 00-.088.035zm-.473.193c-.056.028-.08.049-.053.049a.373.373 0 00.14-.049c.113-.063.053-.063-.087 0zm-.193.088c-.032.02-.035.035-.01.035a.09.09 0 00.063-.035c.028-.042.014-.042-.053 0zm-.298.136a.99.99 0 00-.19.105c.032.004.418-.175.418-.192 0-.021-.004-.021-.228.087zm-.34.168c.025.011.056.008.067-.003.014-.01-.007-.021-.046-.018-.038 0-.049.011-.02.022zm-.133.046c-.046.028-.042.035.01.035.032 0 .06-.017.06-.035 0-.042-.003-.042-.07 0zm-.28.14c-.032.021-.036.035-.01.035a.089.089 0 00.062-.035c.028-.042.014-.042-.052 0zm-.14.07c-.046.028-.043.035.01.035.031 0 .06-.017.06-.035 0-.042-.004-.042-.07 0zm-.439.246c-.01.02.004.024.032.014.063-.025.073-.05.024-.05a.067.067 0 00-.056.036zm-1.034.595c-.031.021-.035.036-.01.036a.089.089 0 00.063-.036c.028-.042.014-.042-.053 0zm-.14.088c-.038.046-.035.05.014.032.032-.01.056-.035.056-.053 0-.046-.02-.038-.07.021zm-1.08.719a.649.649 0 01-.122.08c-.02.007-.031.025-.02.035.01.014.073-.024.14-.08.066-.056.111-.102.1-.102a.347.347 0 00-.097.067zm-.451.336l-.098.091.115-.077c.102-.07.137-.105.098-.105a.52.52 0 00-.115.091zm-.431.333c-.123.109-.123.109-.01.031.1-.066.174-.14.143-.14-.007 0-.067.05-.133.109zm-.316.245c-.087.08-.126.123-.087.098.09-.063.283-.241.262-.241-.01 0-.087.066-.175.143zm-.301.25l-.102.115.116-.102c.105-.098.13-.126.101-.126-.007 0-.056.053-.115.112zm-.246.213l-.101.112.105-.088c.06-.049.112-.09.12-.098.006-.003.006-.014-.004-.024-.007-.01-.063.035-.12.098zm-.595.526c-.712.672-1.82 1.84-1.784 1.875.007.007.066-.046.13-.12.343-.4 1.401-1.479 1.93-1.973.113-.101.197-.192.19-.2-.007-.006-.214.18-.466.418zm-1.987 2.1c-.088.102-.155.193-.148.2.014.01.12-.105.274-.302.122-.154.031-.08-.126.102zm-.32.385c-.066.085-.115.158-.105.165.014.014.046-.02.193-.217.112-.147.053-.112-.087.052zm-.252.333c-.052.07-.08.116-.056.102.046-.028.196-.231.172-.231-.01 0-.06.06-.116.13zm-.157.21c-.113.137-.155.2-.113.176.046-.028.2-.235.176-.235a.267.267 0 00-.063.06zm-.256.344c-.053.067-.08.123-.067.123.014 0 .063-.056.109-.123.101-.158.077-.158-.042 0zm-.4.568c-.154.235-.21.326-.158.273a6.69 6.69 0 00.305-.43c.014-.022.018-.043.007-.043-.01 0-.08.091-.154.2zm-.301.466c-.05.077-.08.14-.067.14.018 0 .063-.063.109-.14.101-.182.077-.182-.042 0zm-.175.287c-.064.116-.064.116.01.028.063-.077.091-.14.063-.14a.813.813 0 00-.073.112zm-.127.204c-.02.038-.028.07-.02.07.01 0 .034-.032.055-.07.021-.039.028-.07.021-.07-.01 0-.035.031-.056.07zm-.105.175c-.02.038-.028.07-.02.07.01 0 .034-.032.055-.07.021-.039.028-.07.021-.07-.01 0-.035.031-.056.07zm38.934.368c.063.116.133.224.154.245.02.018-.014-.06-.077-.175a1.567 1.567 0 00-.154-.245c-.021-.021.014.06.077.175zM3.02 11.39c-.063.102-.053.133.014.042.032-.045.05-.087.042-.094-.007-.007-.031.017-.056.052zm-.112.21c-.021.039-.028.07-.021.07.01 0 .035-.031.056-.07.02-.038.028-.07.02-.07-.01 0-.034.032-.055.07zm-.123.214c-.014.021-.017.042-.007.053.007.01.025-.007.035-.039.025-.06.004-.07-.028-.014zm39.515-.031c.004.031.698 1.37.701 1.349 0-.035-.662-1.356-.683-1.356-.01 0-.018.003-.018.007zm-39.616.228c-.021.049-.018.052.017.02.025-.024.035-.052.025-.063-.01-.01-.032.008-.042.043zm-.07.14c-.022.049-.018.052.017.02.025-.024.035-.052.025-.062-.011-.01-.032.007-.043.042zm-.421.84c-.021.05-.018.053.017.022.025-.025.035-.053.025-.063-.01-.01-.032.007-.042.042zm40.878.344c0 .018.018.06.035.088.018.028.035.035.035.017a.218.218 0 00-.035-.087c-.017-.028-.035-.039-.035-.018zm.074.175c0 .018.028.092.067.158.038.067.066.105.066.088a.516.516 0 00-.066-.158c-.039-.066-.067-.109-.067-.088zm.207.491c0 .018.017.06.035.088.017.028.035.035.035.017a.217.217 0 00-.035-.087c-.018-.028-.035-.039-.035-.018zm.08.235c.004.053.021.08.039.063.014-.014.014-.056-.007-.091-.032-.056-.035-.05-.032.028zm.06.116c0 .017.017.06.035.087.018.028.035.035.035.018a.216.216 0 00-.035-.088c-.017-.028-.035-.038-.035-.017zM1.44 14.81c0 .038.01.049.021.02.011-.024.007-.055-.003-.066-.01-.014-.021.007-.018.046zm-.07.178c-.003.021-.014.07-.024.106-.018.06-.018.06.02 0 .022-.035.032-.081.022-.106-.01-.031-.018-.031-.018 0zm-.07.21c-.003.022-.014.07-.024.106-.018.06-.018.06.02 0 .022-.035.032-.08.022-.105-.01-.032-.018-.032-.018 0zm-.07.211c-.003.021-.014.07-.024.105-.018.06-.018.06.02 0 .022-.035.032-.08.022-.105-.01-.031-.018-.031-.018 0zm-.07.21c-.003.021-.014.07-.024.106-.018.06-.018.06.02 0 .022-.036.032-.081.022-.106-.011-.031-.018-.031-.018 0zm-.07.242c0 .039.01.05.021.021.01-.024.007-.056-.004-.066-.01-.014-.02.007-.017.045zm42.974.165c.004.052.018.095.035.095.035 0 .032-.078-.007-.137-.024-.035-.031-.025-.028.042zm-43.044.031a.544.544 0 01-.025.123c-.017.06-.017.06.021 0a.195.195 0 00.025-.123c-.014-.052-.018-.052-.021 0zm-.07.246a.543.543 0 01-.025.122c-.017.06-.017.06.021 0a.194.194 0 00.025-.122c-.014-.053-.018-.053-.021 0zm43.191-.01c-.01.017-.003.041.018.055.017.01.035-.003.035-.031 0-.063-.021-.074-.053-.025zm.063.22c.004.053.021.08.039.063.014-.014.014-.056-.007-.091-.032-.056-.035-.05-.032.028zm-43.32.063c0 .05.006.067.017.042a.185.185 0 000-.087c-.01-.021-.018-.004-.018.045zm-.074.252a.543.543 0 01-.025.123c-.017.06-.017.06.021 0a.194.194 0 00.025-.123c-.014-.052-.018-.052-.021 0zm43.471-.006c.011.017.029.035.04.035.006 0 .013-.018.013-.035 0-.022-.017-.036-.038-.036-.018 0-.025.014-.014.036zm.07.241c-.01.018-.003.042.018.056.018.01.035-.003.035-.031 0-.063-.02-.074-.052-.025zM.74 17.11a.542.542 0 01-.024.123c-.018.06-.018.06.021 0a.195.195 0 00.025-.123c-.015-.053-.018-.053-.022 0zm-.066.308c0 .05.007.067.017.042a.185.185 0 000-.087c-.01-.021-.017-.004-.017.045zm43.752-.01c-.02.049-.017.052.018.02.024-.024.035-.052.024-.062-.01-.01-.031.007-.042.042zm.074.273c-.014.028-.007.06.01.07.021.014.035-.01.035-.049 0-.088-.02-.095-.045-.02zm-43.896.053c0 .049.007.066.017.042a.185.185 0 000-.088c-.01-.02-.017-.003-.017.046zm43.983.315c0 .05.008.067.018.042a.185.185 0 000-.088c-.01-.02-.018-.003-.018.046zm-44.053.035c0 .05.007.067.017.042a.185.185 0 000-.087c-.01-.022-.017-.004-.017.045zm44.085.161c0 .039.01.05.021.021.01-.024.007-.056-.004-.066-.01-.014-.02.007-.017.045zm.038.155c0 .049.008.066.018.042a.185.185 0 000-.088c-.01-.021-.017-.003-.017.046zm-44.193.07c0 .049.007.066.017.042a.185.185 0 000-.088c-.01-.02-.017-.003-.017.046zm44.229.175c0 .049.007.067.017.042a.185.185 0 000-.088c-.01-.02-.017-.003-.017.046zm.035.21c0 .067.007.095.017.06a.36.36 0 000-.123c-.01-.032-.017-.003-.017.063zm-44.334.018c0 .056.007.077.017.042a.265.265 0 000-.105c-.01-.021-.017.003-.017.063zm44.404.42c0 .056.007.077.017.042a.261.261 0 000-.105c-.01-.02-.017.004-.017.063zm-44.475.035c0 .056.007.077.018.042a.265.265 0 000-.105c-.01-.02-.018.004-.018.063zm-.07.526c0 .056.007.077.018.042a.265.265 0 000-.105c-.01-.021-.018.003-.018.063zM.18 24.449c0 .038.01.049.02.02.011-.024.008-.055-.003-.066-.01-.014-.02.007-.017.046zm.07.7c0 .04.01.05.02.022.011-.025.008-.056-.003-.067-.01-.014-.02.007-.017.046zm.073.54c0 .05.007.067.018.042a.185.185 0 000-.087c-.01-.021-.018-.004-.018.045zm44.475.035c0 .05.007.067.017.042a.183.183 0 000-.087c-.01-.021-.017-.004-.017.045zm-44.404.403c0 .056.007.078.017.042a.265.265 0 000-.105c-.01-.02-.017.004-.017.063zm44.334.018c0 .049.007.067.017.042a.185.185 0 000-.088c-.01-.02-.017-.003-.017.046zm-.05.175c-.024.084-.01.133.029.098.01-.014.014-.06.007-.105-.01-.08-.01-.08-.035.007zm-44.214.21c0 .05.007.067.017.043a.185.185 0 000-.088c-.01-.021-.017-.004-.017.045zm44.19.021c0 .039.01.05.021.022.01-.025.007-.057-.003-.067-.011-.014-.021.007-.018.045zm-.049.186c-.014.06-.01.074.017.046a.095.095 0 00.021-.08c-.01-.029-.024-.011-.038.034zm-44.071.179c0 .049.007.067.017.042a.185.185 0 000-.088c-.01-.02-.017-.003-.017.046zm44.004.186c-.01.066-.007.087.014.066.021-.02.028-.063.021-.098-.01-.049-.017-.042-.035.032zm-43.934.164c0 .05.007.067.017.042a.185.185 0 000-.087c-.01-.021-.017-.004-.017.045zm43.857.162c-.014.031-.014.066-.003.077.007.01.024-.01.038-.042.014-.032.014-.067.004-.078-.007-.01-.025.011-.039.043zm-43.79.14c0 .038.01.049.02.02.01-.024.007-.055-.003-.066-.01-.014-.021.007-.018.046zm43.741 0c.014.01.007.066-.01.13-.018.063-.018.094 0 .073.06-.06.084-.224.035-.224-.025 0-.035.01-.025.02zm-43.668.294c0 .05.007.067.018.042a.185.185 0 000-.087c-.011-.021-.018-.004-.018.045zm43.595.074c-.046.133-.046.137-.007.137.031 0 .084-.21.06-.235-.008-.007-.032.035-.053.098zM.81 28.128c0 .04.01.05.02.022.011-.025.008-.056-.003-.067-.01-.014-.02.007-.017.046zm43.454.053a.354.354 0 01-.032.133.452.452 0 00-.049.148.891.891 0 01-.031.136c-.025.067-.074.235-.168.56a7.727 7.727 0 01-.18.544 1.242 1.242 0 01-.07.2.353.353 0 00-.03.133c0 .039-.011.07-.025.07-.018 0-.067.123-.112.273-.05.148-.095.277-.11.288-.034.028-.118.315-.097.336.052.05.925-2.481.897-2.607a.393.393 0 01.035-.123c.053-.122.053-.164.007-.164-.017 0-.035.031-.035.073zM.88 28.41c0 .039.01.049.02.02.011-.024.008-.055-.003-.066-.01-.014-.02.007-.017.046zm.07.245c0 .039.01.05.02.021.011-.024.008-.056-.003-.066-.01-.014-.02.007-.017.045zm.07.246c0 .038.01.049.02.02.011-.024.008-.056-.003-.066-.01-.014-.02.007-.017.046zm42.263 2.18c0 .042-.032.13-.07.2a.543.543 0 00-.07.192c0 .038-.014.07-.035.07-.018 0-.036.032-.036.07 0 .039-.014.07-.035.07-.017 0-.035.025-.035.053a.565.565 0 01-.07.175.568.568 0 00-.07.175c0 .028-.01.053-.028.053-.014 0-.046.052-.074.112a4.68 4.68 0 01-.245.494.66.66 0 00-.073.182c0 .029-.01.053-.025.053-.017 0-.067.088-.116.193-.049.105-.098.193-.112.193-.017 0-.028.027-.028.066a.168.168 0 01-.052.109.558.558 0 00-.113.172 2.04 2.04 0 01-.157.273.732.732 0 00-.098.182c0 .021-.014.039-.032.039-.017 0-.038.028-.053.06a1.43 1.43 0 01-.21.357c-.031.035-.056.08-.056.101 0 .025-.014.042-.028.042-.017 0-.052.042-.08.095a.892.892 0 01-.11.165.264.264 0 00-.062.098c0 .017-.032.063-.07.105-.039.042-.07.098-.07.123 0 .024-.014.045-.028.045s-.056.046-.088.105c-.035.056-.08.123-.105.148a1.616 1.616 0 00-.13.168c-.049.066-.112.154-.144.193-.035.038-.192.238-.357.448-.165.207-.452.557-.641.778-.368.424-1.704 1.763-2.079 2.085a20.63 20.63 0 00-.29.253l-.21.175c-.081.063-.162.133-.183.15a3.182 3.182 0 01-.196.158 4.174 4.174 0 00-.225.183c-.119.108-1.244.904-1.57 1.114a20 20 0 01-.956.578c-.095.053-.19.11-.21.123-.18.13-1.55.81-2.174 1.08a24.65 24.65 0 01-1.622.62c-.102.031-.18.066-.172.074.021.02.753-.235 1.346-.474a22.087 22.087 0 007.633-5.089 21.601 21.601 0 003.354-4.342c.624-1.044 1.475-2.807 1.395-2.888-.025-.024-.035-.01-.035.043zM5.187 36.742c0 .007.028.035.063.06.053.045.056.042.01-.014-.045-.056-.073-.074-.073-.046zm1.367 1.51a7 7 0 00.42.404 7.06 7.06 0 00-.385-.403 7.367 7.367 0 00-.42-.404c-.008 0 .164.183.385.404zm.63.631c.067.067.127.123.13.123a.437.437 0 00-.08-.123c-.05-.066-.109-.122-.13-.122-.021 0 .014.056.08.122zm.312.274c.081.098.463.42.439.371-.01-.028-.127-.137-.253-.242-.13-.105-.214-.164-.186-.13zm.638.557l.155.133.14.123-.12-.133c-.066-.07-.136-.13-.157-.13-.018 0-.025.004-.018.007zm.323.26c.042.07.445.367.445.332 0-.02-.014-.038-.028-.038-.018 0-.06-.028-.098-.063-.112-.102-.344-.267-.32-.232zm.585.469c.308.273 1.556 1.1 2.366 1.57.378.217 1.742.918 1.79.918.011 0 .004-.024-.02-.052-.025-.032-.053-.046-.064-.039-.028.032-1.233-.589-1.759-.904-.088-.05-.21-.12-.27-.15-.063-.032-.115-.07-.115-.088 0-.014-.018-.028-.039-.028a.845.845 0 01-.196-.106.965.965 0 00-.172-.105c-.021 0-.547-.35-.575-.382a.734.734 0 00-.112-.07c-.056-.028-.098-.063-.098-.08 0-.014-.021-.028-.046-.028-.024 0-.077-.029-.115-.063-.035-.036-.123-.099-.19-.148a1.69 1.69 0 01-.14-.105 2.48 2.48 0 00-.192-.133c-.176-.12-.176-.12-.053-.007zm4.346 2.569c.196.108 1.507.63 1.528.61.01-.007-.123-.067-.291-.13-.172-.063-.53-.21-.8-.322-.577-.246-.65-.274-.437-.158zm1.682.666c0 .024.428.168.445.15.01-.007-.07-.042-.172-.073-.101-.035-.206-.07-.227-.08-.025-.008-.046-.008-.046.003zm.596.217a.757.757 0 00.175.046c.028 0-.003-.021-.07-.046a.753.753 0 00-.175-.046c-.028 0 .003.021.07.046zm13.517.042c-.15.05-.266.095-.259.105.007.007.154-.035.326-.09.172-.057.287-.103.26-.103-.029 0-.176.039-.327.088zm-13.114.08a.373.373 0 00.123.032c.031 0 .028-.014-.018-.031a.374.374 0 00-.123-.032c-.031 0-.028.014.018.032zm12.732.06c.025.01.057.007.067-.003.014-.01-.007-.021-.046-.018-.038 0-.049.01-.02.021zm-12.301.07c.024.01.056.007.067-.003.014-.01-.007-.021-.046-.018-.038 0-.049.01-.021.021zm12.056 0c.025.01.056.007.067-.003.014-.01-.007-.021-.046-.018-.039 0-.049.01-.02.021zm-11.916.035c.025.01.056.007.067-.003.014-.01-.007-.021-.046-.018-.038 0-.049.01-.02.021zm.14.035c.025.011.056.007.067-.003.014-.01-.007-.021-.046-.018-.038 0-.049.011-.02.021zm11.415.011c-.087.038.004.038.123 0 .07-.021.073-.028.017-.028a.4.4 0 00-.14.028zm-.165.06c.025.01.056.007.067-.004.014-.01-.007-.021-.046-.017-.038 0-.049.01-.02.02zm-.14.035c.025.01.056.007.067-.004.014-.01-.007-.02-.046-.017-.038 0-.049.01-.02.02zm-.256.045c-.056.025-.06.032-.01.032.031.003.07-.014.08-.032.025-.038.025-.038-.07 0zm-.2.06c.025.01.057.007.067-.004.014-.01-.007-.02-.045-.017-.039 0-.05.01-.021.02zm-.175.035a.186.186 0 00.088 0c.021-.01.003-.018-.046-.018s-.066.007-.042.018zm-9.287.035c.024.01.056.007.066-.004.015-.01-.006-.02-.045-.017-.039 0-.05.01-.021.02zm9.112 0a.185.185 0 00.088 0c.02-.01.003-.018-.046-.018s-.066.007-.042.018zm-8.762.07c.025.01.056.007.067-.004.014-.01-.007-.02-.046-.017-.038 0-.049.01-.02.02zm8.279.01c-.07.021-.074.029-.018.029.039 0 .12-.014.175-.028.095-.025.095-.029.018-.029a.756.756 0 00-.175.029zm-1.2.2a.47.47 0 00.141 0c.032-.01-.004-.017-.08-.014-.078 0-.106.007-.06.014z" fill="#A9ABA9"/></g><path d="M17.937 1.356c.024.01.056.007.066-.003.014-.01-.006-.021-.045-.018-.039 0-.05.01-.021.021zm2.853.929c-.025.025-.042.098-.042.168s.017.144.042.168c.06.06 3.5.06 3.56 0 .025-.024.042-.098.042-.168s-.017-.143-.041-.168c-.06-.06-3.502-.06-3.561 0zm-7.017.414c-.028.017-.035.035-.017.035.02 0 .06-.018.088-.035.027-.018.038-.035.017-.035a.238.238 0 00-.088.035zm-.297.14c-.011.02.003.024.031.014.063-.025.074-.05.025-.05a.067.067 0 00-.056.036zm-.439.21c-.031.021-.035.035-.01.035a.089.089 0 00.063-.035c.028-.042.014-.042-.053 0zm-.14.07c-.031.021-.035.035-.01.035a.089.089 0 00.063-.035c.028-.042.014-.042-.053 0zm-.14.07c-.031.021-.035.035-.01.035a.089.089 0 00.063-.035c.028-.042.014-.042-.053 0zm-.14.07c-.032.021-.035.035-.01.035a.089.089 0 00.062-.035c.028-.042.014-.042-.052 0zm-.14.07c-.032.021-.035.035-.01.035a.089.089 0 00.062-.035c.028-.042.014-.042-.052 0zm-.263.14c-.01.022.003.025.031.015.063-.025.074-.05.025-.05a.067.067 0 00-.056.036zm-.123.07c-.031.022-.035.036-.01.036a.089.089 0 00.063-.035c.028-.042.014-.042-.053 0zm-.161.092c-.063.049-.063.052.014.014.042-.021.077-.046.077-.053 0-.028-.018-.02-.091.039zm-.372.21c-.133.07-.126.098.007.032a.366.366 0 00.106-.07c0-.025-.004-.021-.113.038zm9.628.084c-4.55.382-8.478 2.16-11.629 5.257-1.072 1.052-1.784 1.91-2.562 3.088-1.622 2.47-2.58 5.141-2.947 8.232-.077.645-.109 2.408-.056 3.19.273 4.069 1.854 7.889 4.552 11.004.428.494 1.55 1.598 2.023 1.994 2.979 2.478 6.382 3.901 10.268 4.287.617.063 2.951.06 3.47 0 3.266-.39 5.85-1.3 8.429-2.98a17.786 17.786 0 002.831-2.298c.964-.954 1.627-1.739 2.317-2.755a18.559 18.559 0 002.997-7.5c.154-.94.203-1.504.22-2.681.014-.873.007-1.269-.038-1.788-.344-3.963-1.774-7.43-4.336-10.514-.371-.445-1.405-1.5-1.906-1.941a18.074 18.074 0 00-4.206-2.793c-1.896-.922-3.851-1.483-6.115-1.753-.544-.066-2.738-.098-3.312-.049zm2.463.095a1.052 1.052 0 01-.21 0c-.063-.007-.02-.014.095-.014.116 0 .168.007.116.014zm.043.115a18.577 18.577 0 019.9 3.698c.726.543 1.234.985 1.914 1.665 4.328 4.32 6.196 10.423 5.04 16.472a18.193 18.193 0 01-4.774 9.182c-1.65 1.696-3.235 2.853-5.229 3.823-2.064 1-4.083 1.556-6.518 1.791-.575.056-2.405.053-3.014-.003-3.866-.358-7.346-1.802-10.325-4.283-.554-.462-1.697-1.601-2.166-2.166-2.45-2.937-3.855-6.287-4.265-10.184-.074-.684-.08-2.43-.018-3.137.302-3.28 1.356-6.28 3.12-8.85a18.99 18.99 0 014.208-4.384c1.78-1.335 3.936-2.397 6.046-2.975 1.963-.54 4.206-.778 6.08-.649zm-13.318 4.36a.221.221 0 01-.06.06c-.056.045-.06.042-.014-.014s.074-.074.074-.046zm-.07.176a.221.221 0 01-.06.06c-.056.045-.06.041-.014-.015s.074-.073.074-.045zm-.894.869c-.326.333-.645.662-.715.729-.109.108-.109.101.014-.035.186-.21 1.255-1.297 1.276-1.297.007 0-.249.273-.575.603zm26.411.157c.046.056.042.06-.01.014-.035-.024-.063-.052-.063-.06 0-.027.028-.01.073.046zm-26.744.056c0 .007-.06.067-.13.134l-.133.119.12-.133c.115-.12.143-.148.143-.12zm26.951.148c.067.066.112.122.102.122a.816.816 0 01-.137-.122c-.067-.067-.112-.123-.102-.123.01 0 .07.056.137.123zm-27.266.203c0 .007-.06.067-.13.133l-.133.12.119-.134c.116-.119.144-.147.144-.119zm27.529.095c.035.038.056.07.046.07-.011 0-.046-.032-.081-.07-.035-.039-.056-.07-.046-.07.01 0 .046.031.08.07zm-27.775.185a.425.425 0 01-.077.08c-.08.067-.08.067-.014-.013.063-.074.091-.095.091-.067zm-.07.2a1.96 1.96 0 01-.185.2c-.025.01-.014-.01.02-.05.095-.108.07-.136-.034-.041-.099.084-.099.08.003-.028.056-.063.112-.105.126-.098.014.007.063-.025.105-.07.14-.151.12-.095-.035.087zm28.321.165c.046.056.043.06-.01.014-.035-.025-.063-.053-.063-.06 0-.028.028-.01.073.046zm-28.601.06a.24.24 0 01-.06.059c-.056.046-.06.042-.014-.014s.074-.074.074-.046zm-.27.466a19.623 19.623 0 00-2.166 3.637c-.592 1.294-1.1 2.951-1.35 4.381-.111.628-.132.715-.129.452.004-.119.018-.21.035-.2.014.008.025-.08.025-.196 0-.115.014-.217.031-.227a.46.46 0 00.053-.169 9.68 9.68 0 01.193-.956l.035-.14.017-.053c.01-.028.042-.14.07-.246.133-.515.344-1.191.442-1.419.017-.039.063-.165.105-.28.039-.116.088-.242.102-.28.017-.04.063-.151.094-.246.035-.098.116-.28.179-.414.063-.13.116-.245.116-.259 0-.049.192-.42.259-.498.042-.049.053-.073.021-.056-.028.018-.014-.014.035-.07.05-.056.067-.087.046-.073-.07.038-.053-.004.035-.088.042-.042.052-.067.024-.053-.028.014-.024.004.014-.028.035-.028.056-.066.046-.084-.014-.014.01-.056.049-.087.038-.035.06-.074.049-.091-.007-.018.007-.043.038-.053.029-.01.05-.05.043-.08-.007-.04.007-.06.038-.053.032.007.039-.01.025-.046-.014-.038-.007-.049.02-.031.029.017.032.007.018-.035-.017-.039-.01-.053.018-.035.028.017.031.007.017-.035-.014-.035-.01-.053.01-.039.032.021.05-.028.04-.098-.004-.018.013-.018.034-.004.028.018.035.007.021-.028-.01-.031.004-.084.032-.122.049-.06.049-.056.014.024-.039.084-.035.084.017.018.028-.039.046-.091.036-.12-.011-.031-.011-.041.003-.027.028.027.12-.039.12-.088 0-.021-.029-.014-.06.01-.05.043-.05.039.003-.045.035-.053.077-.091.091-.08.018.01.144-.151.284-.358.137-.21.393-.565.564-.789.169-.228.309-.424.309-.438 0-.01-.042.014-.095.063l-.098.084.084-.094c.046-.053.095-.088.109-.08.014.01.052-.015.087-.053.14-.155.07-.05-.252.374zm29.148-.183c.046.05.074.088.064.088a.467.467 0 01-.099-.088c-.045-.049-.073-.087-.063-.087.007 0 .053.038.098.087zM7.78 11.3a.221.221 0 01-.06.06c-.055.045-.059.042-.013-.014.045-.056.073-.074.073-.046zm29.587.214c.038.073.028.063-.112-.105-.084-.102-.084-.102-.007-.035a.607.607 0 01.119.14zM7.675 11.44a.221.221 0 01-.06.06c-.055.045-.059.042-.013-.014.045-.056.073-.074.073-.046zm-.105.14a.221.221 0 01-.06.06c-.056.046-.06.042-.013-.014.045-.056.073-.074.073-.046zm30.028.246c.133.196.154.231.137.231a.838.838 0 01-.116-.15 3.934 3.934 0 00-.168-.236c-.056-.063-.06-.073-.01-.038.034.028.105.112.157.193zm-30.273.09a.556.556 0 01-.091.106c-.01 0 .014-.05.056-.105a.45.45 0 01.09-.105c.011 0-.013.045-.055.105zm30.525.285c.053.098.018.08-.052-.025-.032-.052-.042-.08-.021-.07a.27.27 0 01.073.095zm.14.21c.053.098.018.08-.052-.024-.031-.053-.042-.081-.02-.07a.27.27 0 01.073.094zm.172.263c.043.066.06.116.043.105a.694.694 0 01-.106-.147c-.042-.067-.06-.116-.042-.105.018.01.063.077.105.147zm.277.487c-.01.01-.031-.007-.042-.042-.02-.05-.017-.053.018-.021.024.024.035.053.024.063zm2.296 12.424c.01.039.003.063-.014.05-.018-.011-.032-.043-.032-.07 0-.071.025-.06.046.02zm-.046.379c0 .196-.315 1.479-.529 2.145a23.98 23.98 0 01-.54 1.489c-.045.095-.13.294-.192.438-.277.638-1.14 2.24-1.181 2.194-.008-.007.073-.158.182-.34.192-.326.228-.406.154-.361-.028.014-.028 0 0-.053.046-.084.08-.098.053-.02-.015.028-.015.052-.004.052.039 0 .273-.456.256-.487-.01-.018.003-.039.031-.053.028-.01.053-.035.053-.056 0-.02-.021-.028-.042-.017-.025.01-.01-.007.035-.039.074-.056.112-.147.042-.102-.021.011-.024-.003-.014-.031.01-.032.039-.05.056-.046.021.004.046-.014.056-.042.01-.028 0-.038-.024-.024-.025.014-.032.003-.018-.028.01-.032.039-.05.056-.046.021.004.046-.014.056-.042.01-.028 0-.038-.024-.024-.025.014-.032.003-.018-.028.01-.032.039-.05.056-.046.021.003.046-.014.056-.042.01-.028 0-.039-.024-.025-.028.018-.028.004-.004-.056.021-.045.046-.108.056-.143.014-.032.039-.06.056-.06.018 0 .025-.014.011-.032-.01-.017.003-.055.031-.084.029-.028.046-.06.036-.07-.032-.028.066-.2.101-.175.021.01.025.004.01-.02-.027-.047.05-.25.095-.25.018 0 .021-.014.01-.031-.024-.039.015-.148.046-.13.01.007.025-.028.028-.077 0-.053.021-.098.042-.105.022-.007.032-.028.022-.042-.011-.018.02-.13.07-.25.049-.118.087-.24.087-.265 0-.029.018-.039.042-.025.021.014.028.01.018-.014-.014-.017.024-.182.084-.364.165-.505.36-1.23.456-1.669.024-.119.056-.217.07-.217.014 0 .024-.035.024-.08-.01-.158.007-.27.042-.27.021 0 .035.028.035.063zm-2.453 6.329a.221.221 0 01-.06.06c-.056.045-.06.042-.014-.014s.074-.074.074-.046zM9.2 35.187c.094.095.165.175.154.175-.01 0-.095-.08-.19-.175-.094-.098-.164-.175-.153-.175.01 0 .094.077.189.175zm18.126 5.103c-.01.01-.042.014-.067.003-.028-.01-.017-.02.021-.02.039-.004.06.006.046.017zm-.26.073a.185.185 0 01-.087 0c-.024-.01-.007-.017.042-.017.05 0 .067.007.046.017zm-.28.07a.185.185 0 01-.087 0c-.025-.01-.007-.017.042-.017s.066.007.045.017zm-.298.07a.36.36 0 01-.122 0c-.035-.01-.007-.017.06-.017.066 0 .094.007.062.018zm-.315.07a.36.36 0 01-.123 0c-.035-.01-.007-.017.06-.017.066 0 .095.007.063.018zm-.35.07a.47.47 0 01-.14 0c-.046-.006-.018-.013.059-.013.077-.004.112.003.08.014zm-.491.07a.36.36 0 01-.123 0c-.035-.01-.007-.017.06-.017.066 0 .094.007.063.018zm-.403.07a.265.265 0 01-.105 0c-.035-.01-.014-.017.042-.017.06 0 .084.007.063.018zm-.291.067c0 .008-.137.011-.305.008l-.308-.008.245-.017c.231-.021.368-.014.368.017zm-.705.029c-.031.031-.276.045-.276.017 0-.017.066-.032.147-.032.08 0 .136.008.13.015zm-.319.038c-.027.032-.837.042-.956.014-.056-.014.136-.024.434-.028.298 0 .533.004.523.014zm-1.04-32.225c-.042.06-.316.466-.607.904a53.038 53.038 0 01-1.57 2.232c-.09.116-.305.393-.476.617-1.024 1.332-2.713 3.235-3.712 4.185-1.416 1.342-2.285 2.355-3.031 3.536-.747 1.184-1.157 2.215-1.367 3.456a3.626 3.626 0 00-.06.928c.01.27.028.547.042.613.2 1.168.638 2.058 1.367 2.787 1.066 1.062 2.632 1.665 4.339 1.665.81 0 1.44-.088 2.222-.312.582-.169 1.461-.53 1.843-.765.112-.066.21-.115.221-.108a.64.64 0 01-.052.207 8.946 8.946 0 00-.144.452 39.87 39.87 0 01-.372 1.142c-.43 1.297-.83 2.177-1.321 2.913-.322.483-.757 1.09-.799 1.118-.018.01-.025.035-.014.052.014.018 1.475.032 3.718.032 3.89 0 3.814.003 3.635-.144a29.58 29.58 0 01-.978-1.135c-.722-.88-1.321-2.384-1.816-4.55-.024-.098-.024-.098.232.043.536.29 1.475.627 2.17.774.854.179 2.056.19 2.817.018 1.251-.28 2.243-.817 3.017-1.637.649-.687 1.129-1.658 1.3-2.64.07-.406.046-1.783-.038-2.19-.315-1.496-1.013-2.873-2.229-4.394a12.529 12.529 0 00-1.524-1.591 37.56 37.56 0 01-1.227-1.182c-2.089-2.116-3.463-3.872-4.987-6.371-.256-.417-.48-.76-.494-.76-.014 0-.06.048-.105.105zm.224 6.378c.298 1.083 1.738 3.263 2.979 4.504.249.252.582.553.736.669.34.252.795.494.992.526.08.014.147.035.147.045 0 .014-.084.053-.19.084-.402.13-1.16.715-1.916 1.486-1.578 1.605-2.559 3.123-2.811 4.34-.028.132-.06.22-.067.192a9.055 9.055 0 01-.094-.333c-.204-.743-.88-1.92-1.809-3.154-.655-.87-1.205-1.469-1.777-1.928a3.52 3.52 0 00-1.202-.666c-.066-.024-.063-.028.018-.06l.228-.094c.403-.165 1.002-.634 1.7-1.335 1.17-1.17 2.067-2.362 2.54-3.375.15-.323.344-.9.39-1.164.024-.158.02-.171.136.263zM11.296 4c-.123.077-.162.13-.053.07.077-.046.203-.14.182-.144-.01 0-.07.035-.13.074zm-.242.158c-.063.049-.063.052.014.014.042-.021.077-.046.077-.053 0-.028-.018-.021-.091.039zm-.393.241a3.219 3.219 0 00-.287.21c0 .018.508-.311.578-.37.077-.074-.02-.018-.29.16zm-.634.435c-.27.196-.305.252-.046.074.19-.13.288-.214.246-.21-.007 0-.095.062-.2.136zm-.424.322c-.123.109-.123.109-.01.032.1-.067.175-.14.143-.14a.989.989 0 00-.133.108zm-.316.228a2.065 2.065 0 00-.21.179c-.028.031.046-.018.168-.109.12-.09.218-.171.218-.182 0-.025-.007-.018-.176.112zm-.49.403l-.193.179.182-.147c.165-.13.246-.21.214-.21-.007 0-.098.08-.203.178zm-.337.284l-.101.116.115-.102c.105-.098.13-.126.102-.126-.007 0-.056.052-.116.112zm-.315.28l-.102.116.116-.102c.105-.098.13-.126.102-.126-.007 0-.057.053-.116.112zm-.452.421l-.246.256.256-.245c.235-.225.27-.263.242-.263-.003 0-.12.115-.252.252zm.462 1.388c-.813.813-1.216 1.24-1.216 1.29 0 .087.14.224.232.224.094 0 2.502-2.411 2.502-2.51 0-.087-.14-.224-.231-.224-.042 0-.523.456-1.287 1.22zm27.32-1.14c-.043.046-.078.113-.078.152 0 .087 2.411 2.502 2.499 2.502.08 0 .235-.154.235-.235 0-.091-2.415-2.499-2.51-2.499-.038 0-.105.035-.147.08zm-28.886.866c-.14.155-.246.28-.235.28.01 0 .13-.125.27-.28.14-.154.245-.28.235-.28-.01 0-.13.126-.27.28zm-.424.48l-.12.134.134-.12c.07-.066.13-.126.13-.133 0-.028-.029 0-.144.12zm-.193.228c-.067.081-.067.081.014.014a.426.426 0 00.077-.08c0-.028-.028-.007-.091.066zm-.137.148c-.02.028-.112.143-.203.262-.095.12-.161.214-.154.214.024 0 .417-.497.403-.511-.007-.004-.028.01-.046.035zm-.441.57c-.046.057-.042.06.014.015a.239.239 0 00.06-.06c0-.028-.029-.01-.074.046zm-.172.222c-.042.056-.067.105-.056.105.007 0 .049-.05.091-.105.042-.06.067-.105.056-.105a.449.449 0 00-.091.105zm-.249.34c-.045.056-.042.06.014.014s.074-.074.046-.074a.221.221 0 00-.06.06zm-.406.578c-.053.07-.088.133-.07.133.01 0 .042-.038.073-.088.06-.09.056-.122-.003-.045zm-.197.298c-.126.203-.136.22-.115.22.007 0 .063-.08.122-.175.06-.098.102-.175.091-.175a.54.54 0 00-.098.13zm-.189.298c-.031.042-.403.666-.568.953-.042.074-.07.144-.06.15.008.011.053-.052.095-.136.042-.08.193-.343.333-.582.232-.389.291-.504.2-.385zm-.641.729c-.021.038-.028.07-.021.07.01 0 .035-.032.056-.07.02-.039.028-.07.02-.07-.01 0-.034.031-.055.07zm-.21.385c-.022.039-.029.07-.022.07.01 0 .035-.031.057-.07.02-.038.028-.07.02-.07-.01 0-.035.032-.056.07zm.115.15a29.01 29.01 0 00-.659 1.34c-.312.683-.932 2.362-.925 2.498 0 .032.091-.21.203-.536.316-.921.642-1.713 1.073-2.604.378-.77.459-.956.308-.697zm-.652.92c-.084.174-.07.202.014.041.039-.077.067-.143.06-.15-.01-.008-.042.042-.074.108zm-.175.385c-.084.175-.07.203.014.042.039-.077.067-.144.06-.151-.01-.007-.042.042-.074.109zm-.109.245c-.031.091-.024.112.018.042.02-.035.031-.074.02-.08-.006-.011-.024.006-.038.038zm-.084.21c-.06.13-.049.158.014.042.032-.056.05-.108.039-.115-.007-.007-.032.024-.053.073zm-.09.21c-.032.092-.025.113.017.043.02-.035.031-.074.02-.081-.006-.01-.024.007-.038.038zm-.071.176c-.032.09-.024.112.018.042.02-.035.031-.074.02-.08-.006-.011-.024.006-.038.038zm-.102.27a.47.47 0 00-.045.157c.007.007.038-.052.07-.133a.471.471 0 00.045-.158c-.007-.007-.038.053-.07.134zm-.196.522c-.02.063-.031.119-.024.126.007.007.031-.035.052-.098.021-.063.032-.12.025-.126-.007-.007-.032.035-.053.098zm-.07.196c-.003.021-.014.07-.024.105-.018.06-.018.06.02 0 .022-.035.032-.08.022-.105-.011-.031-.018-.031-.018 0zm-.088.277c-.014.049-.017.098-.01.109.01.007.028-.028.038-.081.014-.05.018-.098.011-.109-.01-.007-.028.028-.039.08zm-.175.557a.277.277 0 00-.017.098c0 .025.017.004.035-.042.017-.045.028-.09.017-.098-.007-.007-.02.01-.035.042zm.14.13c-.13.456-.227.845-.2.813.018-.018.064-.165.106-.33a7.42 7.42 0 01.133-.466c.028-.094.045-.178.035-.185-.01-.01-.042.063-.074.168zm-.192.084c0 .039.01.049.02.021.011-.024.008-.056-.003-.067-.01-.014-.02.007-.017.046zm-.176.63c0 .04.01.05.021.022.01-.025.007-.056-.003-.067-.01-.014-.021.007-.018.046zm.123.208a.396.396 0 00-.017.133c.003.049.014.031.031-.046.032-.13.025-.182-.014-.087zm-.193.073c0 .039.01.05.021.021.01-.024.007-.056-.003-.066-.01-.014-.021.007-.018.045zm-.035.175c0 .039.01.05.021.021.01-.024.007-.056-.003-.066-.01-.014-.021.007-.018.045zm.144.155c0 .049.007.066.017.042a.185.185 0 000-.088c-.01-.021-.017-.003-.017.046zm-.07.315c0 .05.007.067.017.042a.185.185 0 000-.088c-.01-.02-.017-.003-.017.046zm42.333.196c0 .039.01.05.02.021.011-.024.008-.056-.003-.066-.01-.014-.02.007-.017.045zM2.285 20.72c-.031.031-.042.48-.042 1.801 0 1.57.007 1.763.056 1.78a.43.43 0 00.298-.014c.063-.035.067-.094.067-1.78 0-1.31-.011-1.756-.042-1.787-.025-.025-.099-.042-.169-.042s-.143.017-.168.042zm40.234 0c-.032.031-.042.48-.042 1.801 0 1.57.007 1.763.056 1.78a.43.43 0 00.298-.014c.063-.035.066-.094.066-1.78 0-1.31-.01-1.756-.042-1.787-.024-.025-.098-.042-.168-.042s-.144.017-.168.042zm.627 8.145c0 .038.01.049.021.02.01-.024.007-.056-.003-.066-.011-.014-.022.007-.018.046zm-.298.872c-.031.091-.024.112.018.042.02-.035.031-.073.02-.08-.006-.01-.024.007-.038.038zm-.123.337c-.02.063-.031.119-.024.126.007.007.032-.035.053-.098.02-.064.031-.12.024-.127-.007-.007-.032.035-.053.099zm-.087.224c-.032.091-.025.112.017.042.021-.035.032-.074.021-.08-.007-.011-.024.006-.038.038zm-.07.175c-.032.091-.025.112.017.042.021-.035.032-.073.021-.08-.007-.011-.024.007-.038.038zm-.07.175c-.032.091-.025.113.017.042.021-.035.032-.073.021-.08-.007-.01-.024.007-.038.038zm-.19.456c-.06.13-.049.158.014.042.032-.056.05-.109.039-.116-.007-.007-.031.025-.053.074zm-.14.315c-.06.13-.049.158.014.042.032-.056.05-.108.039-.115-.007-.007-.032.024-.053.073zm-.333.701c-.13.26-.227.473-.217.473.024 0 .48-.914.466-.932-.007-.007-.119.2-.249.46zm-.375.719c-.038.077-.063.14-.052.14a.549.549 0 00.087-.14c.039-.077.063-.14.053-.14a.558.558 0 00-.088.14zm-.157.28c-.032.056-.046.105-.039.105.01 0 .042-.049.074-.105.031-.06.045-.105.038-.105-.01 0-.042.046-.073.105zm-.123.21c-.021.039-.028.07-.021.07.01 0 .035-.031.056-.07.021-.038.028-.07.021-.07-.01 0-.035.032-.056.07zm-.105.176c-.021.038-.028.07-.021.07.01 0 .035-.032.056-.07.02-.039.028-.07.02-.07-.01 0-.034.031-.055.07zm-.105.175c-.021.038-.028.07-.021.07.01 0 .035-.032.056-.07.02-.039.028-.07.02-.07-.01 0-.034.031-.055.07zm-.091.147l-.078.133c-.049.084-.045.084.01.018.071-.084.13-.193.11-.193-.01 0-.029.021-.042.042zm-.204.326l-.112.182c-.056.098-.056.098.014.014.084-.101.193-.284.172-.284-.01 0-.042.039-.074.088zm-.284.424c-.031.053-.042.08-.02.07.038-.024.122-.161.097-.161-.01 0-.042.042-.077.091zm-35.73.046c.018.038.053.08.074.094.02.01.01-.017-.021-.07-.07-.105-.105-.122-.053-.024zm.242.343c.021.035.077.109.126.168.07.08.067.063-.02-.063-.113-.161-.173-.22-.106-.105zm.214.305c0 .007.028.035.063.06.052.045.056.042.01-.014-.045-.056-.073-.074-.073-.046zm.13.168c.203.267.438.554.452.554.007 0-.092-.133-.218-.298a2.78 2.78 0 00-.252-.298c-.007 0 0 .021.018.042zm1.77.039c-.043.045-.078.112-.078.15 0 .099 2.411 2.503 2.513 2.503.084 0 .22-.15.22-.242 0-.088-2.42-2.492-2.508-2.492-.039 0-.106.035-.148.08zm29.596 1.139c-.813.813-1.216 1.24-1.216 1.29 0 .087.14.224.232.224.094 0 2.502-2.411 2.502-2.51 0-.087-.14-.224-.231-.224-.042 0-.523.456-1.287 1.22zm3.127-1.125c-.046.056-.043.06.014.014.056-.046.073-.074.045-.074a.221.221 0 00-.06.06zm-.106.14c-.045.056-.042.06.014.014s.074-.074.046-.074a.221.221 0 00-.06.06zm-.122.158c-.067.08-.067.08.014.014.073-.063.094-.091.066-.091a.423.423 0 00-.08.077zm-.298.368a24.634 24.634 0 01-2.548 2.618 5.594 5.594 0 00-.358.33c0 .01.035-.015.081-.053.042-.039.242-.214.445-.386.442-.382 1.65-1.605 2.071-2.096.375-.441.572-.683.55-.683-.01 0-.118.123-.241.27zm-33.4.003c.06.077.133.158.168.186.036.028-.007-.035-.09-.137-.18-.21-.239-.249-.078-.049zm.302.358c.035.038.07.07.08.07.01 0-.01-.032-.045-.07-.035-.039-.07-.07-.08-.07-.011 0 .01.031.045.07zm.263.294c0 .007.028.035.063.06.052.045.056.042.01-.014-.045-.056-.073-.074-.073-.046zm29.67 2.478c-.29.238-.326.284-.074.095.183-.14.337-.28.295-.27-.007 0-.109.08-.22.175zm-15.26 3.158c-.024.024-.041.098-.041.168s.017.144.042.168c.06.06 3.5.06 3.56 0 .025-.024.042-.098.042-.168s-.017-.144-.041-.168c-.06-.06-3.502-.06-3.561 0z" fill="#92918F"/><path d="M20.78 2.317c-.06.112-.011.301.083.326.123.031 3.403.024 3.456-.011.067-.042.07-.312.003-.354-.031-.021-.764-.035-1.776-.035-1.718 0-1.725 0-1.767.074zM8.161 8.155C7.458 8.86 6.94 9.403 6.94 9.438c0 .08.154.235.235.235.08 0 2.499-2.418 2.499-2.499 0-.08-.154-.235-.231-.235-.032 0-.61.547-1.28 1.216zm27.323-1.128c-.05.045-.088.112-.088.147 0 .084 2.415 2.499 2.499 2.499.08 0 .235-.154.235-.235 0-.084-2.418-2.499-2.499-2.499-.035 0-.102.039-.147.088zM22.598 8.68c-.031.035-.294.424-.589.87-.942 1.415-2.085 2.964-2.909 3.942-.189.22-.42.494-.511.606-.596.705-1.3 1.455-2.38 2.534-1.784 1.784-2.281 2.37-3.038 3.572-.89 1.415-1.413 2.96-1.413 4.205 0 1.384.494 2.604 1.434 3.54 1.577 1.566 4.128 2.067 6.648 1.3.508-.154 1.28-.473 1.63-.673.36-.207.375-.203.28.046a9.468 9.468 0 00-.144.448c-.224.754-.704 2.128-.897 2.57-.392.886-.645 1.314-1.332 2.267a10.56 10.56 0 00-.252.36c-.024.032.722.043 3.673.043h3.7l-.43-.494c-1.269-1.451-1.612-2.156-2.303-4.71-.102-.383-.157-.649-.137-.67.014-.01.137.046.28.123.141.077.453.217.695.315 1.107.442 2.117.627 3.182.589 1.507-.053 2.888-.61 3.876-1.563.473-.46.757-.845 1.02-1.388.235-.48.358-.834.463-1.318.098-.452.087-1.69-.018-2.246-.238-1.276-.785-2.478-1.696-3.75-.515-.722-.806-1.055-1.55-1.78-2.74-2.675-3.514-3.512-4.73-5.118a39.109 39.109 0 01-.673-.91c-.48-.702-.88-1.312-1.146-1.753-.4-.67-.624-1.016-.652-1.016-.018 0-.053.028-.08.06zm.207 6.358c.28 1.09 1.773 3.35 3.031 4.594.624.617 1.3 1.066 1.704 1.132.08.014.147.039.147.056 0 .018-.014.032-.035.032-.186 0-.757.336-1.258.746-.61.494-1.647 1.609-2.264 2.425-.775 1.03-1.311 2.1-1.41 2.811-.02.148-.08.179-.08.039 0-.133-.238-.789-.417-1.143-.557-1.11-1.605-2.59-2.506-3.536-.638-.67-1.314-1.163-1.773-1.293-.242-.07-.284-.109-.154-.14.413-.098 1.121-.61 1.871-1.353 1.5-1.483 2.618-3.126 2.895-4.251l.109-.435c.02-.084.056-.01.14.316zM2.299 20.734c-.049.049-.056.255-.056 1.759 0 1.002.014 1.728.035 1.76.042.066.312.062.354-.004.018-.028.032-.817.032-1.756 0-1.875.007-1.815-.21-1.815-.057 0-.127.024-.155.056zm40.234 0c-.05.049-.056.255-.056 1.759 0 1.002.014 1.728.035 1.76.042.066.312.062.354-.004.017-.028.031-.817.031-1.756 0-1.875.007-1.815-.21-1.815-.056 0-.126.024-.154.056zM7.027 35.484c-.05.046-.088.113-.088.148 0 .084 2.415 2.499 2.5 2.499.08 0 .234-.154.234-.235 0-.084-2.418-2.499-2.499-2.499-.035 0-.102.039-.147.088zm29.59 1.133c-.698.694-1.22 1.244-1.22 1.279 0 .08.154.235.235.235.08 0 2.499-2.418 2.499-2.499 0-.08-.154-.235-.235-.235-.035 0-.6.536-1.28 1.22zM20.779 42.48c-.06.112-.01.302.084.326.123.032 3.403.025 3.456-.01.067-.042.07-.312.003-.354-.031-.021-.764-.035-1.776-.035-1.718 0-1.725 0-1.767.073z" fill="#981613"/><path d="M20.78 2.317c-.06.112-.011.301.083.326.123.031 3.403.024 3.456-.011.067-.042.07-.312.003-.354-.031-.021-.764-.035-1.776-.035-1.718 0-1.725 0-1.767.074zM2.3 20.734c-.05.049-.057.255-.057 1.759 0 1.002.014 1.728.035 1.76.042.066.312.062.354-.004.018-.028.032-.817.032-1.756 0-1.875.007-1.815-.21-1.815-.057 0-.127.024-.155.056zm40.233 0c-.05.049-.056.255-.056 1.759 0 1.002.014 1.728.035 1.76.042.066.312.062.354-.004.017-.028.031-.817.031-1.756 0-1.875.007-1.815-.21-1.815-.056 0-.126.024-.154.056zM20.779 42.48c-.06.112-.01.302.084.326.123.032 3.403.025 3.456-.01.067-.042.07-.312.003-.354-.031-.021-.764-.035-1.776-.035-1.718 0-1.725 0-1.767.073z" fill="#191919"/><defs><clipPath id="clip0_1_295"><path fill="#fff" d="M0 0h45v45H0z"/></clipPath><clipPath id="clip1_1_295"><path fill="#fff" d="M0 0h45v45H0z"/></clipPath><clipPath id="clip2_1_295"><path fill="#fff" d="M0 0h45v45H0z"/></clipPath></defs></svg>